<svg width="170" height="36" viewBox="0 0 170 36" fill="none" xmlns="http://www.w3.org/2000/svg">
<defs>
    <linearGradient id="paint0_linear_55_157" x1="20" y1="9.25758" x2="124.517" y2="66.3921" gradientUnits="userSpaceOnUse">
        <stop stop-color="#241E66"/>
        <stop offset="0.984375" stop-color="#368234"/>
    </linearGradient>
    <radialGradient id="paint1_angular_55_157" cx="0" cy="0" r="1" gradientUnits="userSpaceOnUse" gradientTransform="translate(95 13) rotate(90) scale(13 75)">
        <stop offset="0.270833" stop-color="#521DE7"/>
        <stop offset="0.520324" stop-color="#39E71D"/>
        <stop offset="1" stop-opacity="0"/>
    </radialGradient>
    <linearGradient id="paint2_linear_55_157" x1="19.6016" y1="7.0625" x2="14.4219" y2="12.2422" gradientUnits="userSpaceOnUse">
        <stop stop-color="#BDBDBD"/>
        <stop offset="1" stop-color="#BDBDBD" stop-opacity="0.2"/>
    </linearGradient>
    <linearGradient id="paint3_linear_55_157" x1="7.71875" y1="23.8203" x2="10.2578" y2="21.2813" gradientUnits="userSpaceOnUse">
        <stop stop-color="#9F9F9F" stop-opacity="0.2"/>
        <stop offset="1" stop-color="#9F9F9F"/>
    </linearGradient>
    <linearGradient id="paint4_linear_55_157" x1="7.92186" y1="10.5664" x2="10.6641" y2="13.0547" gradientUnits="userSpaceOnUse">
        <stop stop-color="#1D33E7" stop-opacity="0.2"/>
        <stop offset="1" stop-color="#1D33E7"/>
    </linearGradient>
    <linearGradient id="paint5_linear_55_157" x1="20.8711" y1="21.7891" x2="16.5039" y2="17.5742" gradientUnits="userSpaceOnUse">
        <stop stop-color="#27A823" stop-opacity="0.2"/>
        <stop offset="1" stop-color="#27A823"/>
    </linearGradient>
</defs>
<path d="M55.73 17.812C55.7218 17.8446 55.6649 17.9829 55.5591 18.2271C55.4533 18.4712 55.2743 18.7723 55.022 19.1304C54.7778 19.4884 54.4523 19.8831 54.0454 20.3145C53.6385 20.7458 53.1258 21.1689 52.5073 21.584C51.8888 21.9909 51.1564 22.3652 50.3101 22.707C49.4637 23.0407 48.4831 23.297 47.3682 23.4761C46.6195 23.5981 45.8341 23.6592 45.0122 23.6592C44.3286 23.6592 43.641 23.6104 42.9492 23.5127C42.2656 23.4232 41.6064 23.2767 40.9717 23.0732C40.3451 22.8779 39.7591 22.6257 39.2139 22.3164C38.6686 22.0072 38.1925 21.641 37.7856 21.2178C37.3869 20.7946 37.0695 20.3104 36.8335 19.7651C36.6056 19.2118 36.4917 18.5973 36.4917 17.9219C36.4917 16.7256 36.8213 15.6961 37.4805 14.8335C38.1478 13.9709 39.1325 13.2995 40.4346 12.8193C39.9707 12.388 39.6248 11.9119 39.397 11.3911C39.1691 10.8703 39.0552 10.3291 39.0552 9.76758C39.0552 9.06771 39.2139 8.42074 39.5312 7.82666C39.8568 7.23258 40.3044 6.71989 40.874 6.28857C41.4437 5.85726 42.1191 5.5236 42.9004 5.2876C43.6898 5.04346 44.5524 4.92139 45.4883 4.92139C46.4323 4.92139 47.2542 5.0109 47.9541 5.18994C48.6621 5.36898 49.2643 5.59277 49.7607 5.86133C50.2653 6.12988 50.6763 6.42285 50.9937 6.74023C51.3192 7.05762 51.5755 7.35465 51.7627 7.63135C51.9499 7.90804 52.0801 8.14404 52.1533 8.33936C52.2266 8.52653 52.2673 8.63232 52.2754 8.65674C52.2835 8.68929 52.2876 8.73405 52.2876 8.79102C52.2876 8.90495 52.2428 9.01074 52.1533 9.1084C52.0719 9.19792 51.9621 9.24268 51.8237 9.24268C51.7261 9.24268 51.6366 9.21419 51.5552 9.15723C51.4819 9.09212 51.429 9.00667 51.3965 8.90088C51.3965 8.8846 51.3639 8.79915 51.2988 8.64453C51.2337 8.48177 51.1198 8.28646 50.957 8.05859C50.7943 7.83073 50.5705 7.59066 50.2856 7.33838C50.009 7.07796 49.6509 6.83789 49.2114 6.61816C48.772 6.3903 48.2471 6.20312 47.6367 6.05664C47.0264 5.91016 46.3102 5.83691 45.4883 5.83691C44.5443 5.83691 43.7223 5.95492 43.0225 6.19092C42.3307 6.42692 41.757 6.73617 41.3013 7.11865C40.8537 7.493 40.52 7.91211 40.3003 8.37598C40.0806 8.83984 39.9707 9.29557 39.9707 9.74316C39.9707 10.2721 40.1009 10.7767 40.3613 11.2568C40.6217 11.737 40.9961 12.1479 41.4844 12.4897C41.9238 12.3758 42.3551 12.2863 42.7783 12.2212C43.2015 12.1561 43.6003 12.1073 43.9746 12.0747C44.349 12.034 44.6867 12.0096 44.9878 12.0015C45.297 11.9852 45.5493 11.9771 45.7446 11.9771C46.1027 11.9771 46.4323 12.0055 46.7334 12.0625C47.0345 12.1113 47.2909 12.1886 47.5024 12.2944C47.7222 12.3921 47.8931 12.5223 48.0151 12.6851C48.1372 12.8397 48.1982 13.0187 48.1982 13.2222C48.1982 13.4256 48.1372 13.6087 48.0151 13.7715C47.8931 13.9342 47.7222 14.0726 47.5024 14.1865C47.2909 14.3005 47.0345 14.39 46.7334 14.4551C46.4323 14.512 46.1027 14.5405 45.7446 14.5405C45.354 14.5405 44.9593 14.5161 44.5605 14.4673C44.1618 14.4185 43.7712 14.3493 43.3887 14.2598C43.0143 14.1702 42.6522 14.0604 42.3022 13.9302C41.9523 13.7918 41.6349 13.6372 41.3501 13.4663C40.0562 13.8569 39.0755 14.4225 38.4082 15.1631C37.7409 15.8955 37.4072 16.8029 37.4072 17.8853C37.4072 18.4712 37.509 19.0002 37.7124 19.4722C37.924 19.936 38.2129 20.347 38.5791 20.7051C38.9453 21.0632 39.3726 21.3724 39.8608 21.6328C40.3573 21.8851 40.8862 22.0926 41.4478 22.2554C42.0093 22.4181 42.5952 22.5402 43.2056 22.6216C43.8159 22.6948 44.4222 22.7314 45.0244 22.7314C45.415 22.7314 45.7935 22.7192 46.1597 22.6948C46.5259 22.6623 46.8799 22.6175 47.2217 22.5605C48.2471 22.3978 49.1463 22.1618 49.9194 21.8525C50.7007 21.5352 51.3721 21.1934 51.9336 20.8271C52.5033 20.4528 52.9753 20.0744 53.3496 19.6919C53.724 19.3013 54.021 18.9473 54.2407 18.6299C54.4686 18.3044 54.6273 18.0399 54.7168 17.8364C54.8145 17.633 54.8633 17.5272 54.8633 17.519C54.8958 17.4214 54.9487 17.3481 55.022 17.2993C55.1034 17.2424 55.1929 17.2139 55.2905 17.2139C55.4207 17.2139 55.5306 17.2586 55.6201 17.3481C55.7096 17.4377 55.7544 17.5435 55.7544 17.6655C55.7544 17.6981 55.7463 17.7469 55.73 17.812ZM47.2705 13.2344C47.2705 13.1693 47.2176 13.1123 47.1118 13.0635C47.006 13.0146 46.8677 12.978 46.6968 12.9536C46.534 12.9211 46.3468 12.9007 46.1353 12.8926C45.9237 12.8763 45.708 12.8682 45.4883 12.8682C45.0081 12.8682 44.5524 12.8844 44.1211 12.917C43.6898 12.9414 43.1974 13.0065 42.644 13.1123C43.0672 13.2669 43.5514 13.3931 44.0967 13.4907C44.6501 13.5802 45.2075 13.625 45.769 13.625C46.2817 13.625 46.6602 13.5843 46.9043 13.5029C47.1484 13.4215 47.2705 13.332 47.2705 13.2344ZM58.3057 18.4834C58.2568 18.6136 58.1958 18.7601 58.1226 18.9229C58.0575 19.0856 57.9801 19.2565 57.8906 19.4355C57.8174 19.5739 57.7401 19.6838 57.6587 19.7651C57.5854 19.8384 57.4878 19.875 57.3657 19.875C57.2274 19.875 57.1175 19.8343 57.0361 19.7529C56.9548 19.6634 56.9141 19.5617 56.9141 19.4478C56.9141 19.4071 56.9181 19.3745 56.9263 19.3501C56.9344 19.3175 56.9548 19.2687 56.9873 19.2036C57.1989 18.7967 57.3535 18.4427 57.4512 18.1416C57.557 17.8324 57.6424 17.5109 57.7075 17.1772C57.6506 16.9901 57.6099 16.8314 57.5854 16.7012C57.561 16.571 57.5488 16.4367 57.5488 16.2983C57.5488 16.0298 57.6058 15.8141 57.7197 15.6514C57.8337 15.4805 57.9924 15.395 58.1958 15.395C58.383 15.395 58.5295 15.4764 58.6353 15.6392C58.7492 15.8019 58.8062 16.0013 58.8062 16.2373C58.8062 16.3675 58.7939 16.4977 58.7695 16.6279C58.7451 16.7581 58.7126 16.9209 58.6719 17.1162C58.859 17.5801 59.0462 17.991 59.2334 18.3491C59.4206 18.7072 59.5874 19.0368 59.7339 19.3379C59.8804 19.6309 59.9984 19.9076 60.0879 20.168C60.1855 20.4284 60.2344 20.6888 60.2344 20.9492C60.2344 21.291 60.1652 21.6165 60.0269 21.9258C59.8885 22.235 59.6606 22.4954 59.3433 22.707C59.384 22.7152 59.4246 22.7192 59.4653 22.7192C59.506 22.7192 59.5467 22.7192 59.5874 22.7192C60.0513 22.7192 60.4785 22.6134 60.8691 22.4019C61.2598 22.1903 61.6097 21.9176 61.9189 21.584C62.2363 21.2422 62.5171 20.8678 62.7612 20.4609C63.0054 20.0459 63.217 19.6349 63.396 19.228C63.4774 19.0409 63.5913 18.9473 63.7378 18.9473C63.8761 18.9473 63.9819 18.9961 64.0552 19.0938C64.1366 19.1914 64.1772 19.2972 64.1772 19.4111C64.1772 19.4762 64.165 19.5373 64.1406 19.5942C64.0511 19.814 63.9331 20.0662 63.7866 20.3511C63.6483 20.6278 63.4774 20.9167 63.2739 21.2178C63.0786 21.5107 62.8507 21.7996 62.5903 22.0845C62.3299 22.3693 62.0369 22.6257 61.7114 22.8535C61.394 23.0732 61.0441 23.2482 60.6616 23.3784C60.2791 23.5168 59.86 23.5859 59.4043 23.5859C58.859 23.5859 58.3504 23.4883 57.8784 23.293C57.4146 23.1058 57.0361 22.7925 56.7432 22.353C56.6943 22.2798 56.6699 22.2025 56.6699 22.1211C56.6699 21.999 56.7147 21.8932 56.8042 21.8037C56.9019 21.7061 57.0117 21.6572 57.1338 21.6572C57.264 21.6572 57.3739 21.702 57.4634 21.7915C57.4715 21.8078 57.5 21.8363 57.5488 21.877C57.5977 21.9095 57.6546 21.9502 57.7197 21.999C57.793 22.0397 57.8743 22.0763 57.9639 22.1089C58.0615 22.1414 58.1592 22.1577 58.2568 22.1577C58.4521 22.1577 58.6149 22.117 58.7451 22.0356C58.8835 21.9543 58.9933 21.8566 59.0747 21.7427C59.1561 21.6206 59.2131 21.4945 59.2456 21.3643C59.2863 21.2259 59.3066 21.1079 59.3066 21.0103C59.3066 20.8068 59.2741 20.6034 59.209 20.3999C59.1439 20.1965 59.0584 19.993 58.9526 19.7896C58.855 19.5861 58.7451 19.3786 58.623 19.167C58.5091 18.9473 58.4033 18.7194 58.3057 18.4834ZM69.5605 19.5942C69.5605 20.3429 69.4263 20.9818 69.1577 21.5107C68.8892 22.0397 68.5596 22.4425 68.1689 22.7192H68.2178C68.6979 22.7192 69.1333 22.6134 69.5239 22.4019C69.9227 22.1821 70.2808 21.9054 70.5981 21.5718C70.9155 21.23 71.2004 20.8516 71.4526 20.4365C71.7049 20.0215 71.9287 19.6187 72.124 19.228C72.1647 19.1385 72.2217 19.0693 72.2949 19.0205C72.3763 18.9717 72.4618 18.9473 72.5513 18.9473C72.6896 18.9473 72.7995 18.9961 72.8809 19.0938C72.9622 19.1914 73.0029 19.2972 73.0029 19.4111C73.0029 19.4762 72.9907 19.5373 72.9663 19.5942C72.7547 20.0662 72.5024 20.5423 72.2095 21.0225C71.9165 21.4945 71.5747 21.9217 71.1841 22.3042C70.7935 22.6867 70.354 22.9959 69.8657 23.2319C69.3774 23.4761 68.8363 23.5981 68.2422 23.5981C67.8109 23.5981 67.3918 23.529 66.9849 23.3906C66.578 23.2604 66.2199 23.0529 65.9106 22.7681C65.7967 22.6785 65.6991 22.585 65.6177 22.4873C65.5363 22.3815 65.4712 22.2839 65.4224 22.1943C65.4061 22.1781 65.3979 22.1618 65.3979 22.1455C65.3491 22.0723 65.3247 21.995 65.3247 21.9136C65.3247 21.8078 65.3613 21.7101 65.4346 21.6206C65.4427 21.6043 65.4508 21.5962 65.459 21.5962C65.4671 21.5881 65.4753 21.5799 65.4834 21.5718C65.5648 21.4985 65.6543 21.4578 65.752 21.4497H65.7886C65.8293 21.4497 65.8577 21.4538 65.874 21.4619C65.8822 21.4619 65.8862 21.466 65.8862 21.4741C65.8944 21.4741 65.9025 21.4741 65.9106 21.4741C65.9351 21.4741 65.9635 21.4823 65.9961 21.4985C66.0042 21.5067 66.0124 21.5107 66.0205 21.5107C66.0938 21.5596 66.1548 21.6206 66.2036 21.6938C66.2606 21.7915 66.3257 21.881 66.3989 21.9624C66.464 22.0275 66.5413 22.0885 66.6309 22.1455C66.7204 22.1943 66.8221 22.2188 66.936 22.2188C67.1395 22.2188 67.3429 22.1577 67.5464 22.0356C67.7498 21.9136 67.9329 21.7386 68.0957 21.5107C68.2585 21.2829 68.3887 21.0062 68.4863 20.6807C68.5921 20.3551 68.645 19.993 68.645 19.5942C68.645 19.3013 68.6125 19.0531 68.5474 18.8496C68.4904 18.638 68.4131 18.4671 68.3154 18.3369C68.2259 18.2067 68.1283 18.1131 68.0225 18.0562C67.9167 17.991 67.8149 17.9585 67.7173 17.9585C67.4976 17.9585 67.2738 18.0724 67.0459 18.3003C66.8262 18.5282 66.6064 18.8171 66.3867 19.167C66.167 19.5169 65.9473 19.9035 65.7275 20.3267C65.516 20.7498 65.3003 21.1608 65.0806 21.5596C65.0643 22.8779 65.0399 24.1353 65.0073 25.3315C64.9829 26.5278 64.9341 27.6387 64.8608 28.6641C64.7957 29.6895 64.7021 30.6172 64.5801 31.4473C64.458 32.2773 64.2912 32.9854 64.0796 33.5713C63.868 34.1654 63.6076 34.6211 63.2983 34.9385C62.9891 35.2559 62.6107 35.4146 62.1631 35.4146C62.0247 35.4146 61.866 35.3861 61.687 35.3291C61.508 35.2721 61.3411 35.1541 61.1865 34.9751C61.0319 34.8042 60.9017 34.556 60.7959 34.2305C60.6901 33.9049 60.6372 33.4696 60.6372 32.9243C60.6372 32.2326 60.7227 31.431 60.8936 30.5195C61.0645 29.6081 61.3086 28.6396 61.626 27.6143C61.9352 26.597 62.3055 25.5513 62.7368 24.4771C63.1681 23.4028 63.6442 22.3571 64.165 21.3398C64.165 21.055 64.165 20.7743 64.165 20.4976C64.1732 20.2209 64.1772 19.9523 64.1772 19.6919C64.0715 19.814 63.9453 19.875 63.7988 19.875C63.6605 19.875 63.5506 19.8262 63.4692 19.7285C63.3879 19.6309 63.3472 19.5251 63.3472 19.4111C63.3472 19.3542 63.3594 19.2931 63.3838 19.228C63.5791 18.7804 63.7297 18.3573 63.8354 17.9585C63.9412 17.5516 64.0186 17.1976 64.0674 16.8965C64.1243 16.5872 64.1569 16.3431 64.165 16.1641C64.1732 15.985 64.1772 15.8914 64.1772 15.8833C64.1772 15.7612 64.222 15.6554 64.3115 15.5659C64.401 15.4764 64.5109 15.4316 64.6411 15.4316C64.7632 15.4316 64.869 15.4764 64.9585 15.5659C65.048 15.6473 65.0928 15.7531 65.0928 15.8833V19.6309C65.2799 19.3135 65.4671 19.0002 65.6543 18.6909C65.8415 18.3817 66.0368 18.105 66.2402 17.8608C66.4518 17.6167 66.6756 17.4214 66.9116 17.2749C67.1558 17.1203 67.4243 17.043 67.7173 17.043C67.994 17.043 68.2463 17.1081 68.4741 17.2383C68.702 17.3685 68.8973 17.5475 69.0601 17.7754C69.2228 18.0033 69.3449 18.2759 69.4263 18.5933C69.5158 18.9025 69.5605 19.2362 69.5605 19.5942ZM64.1406 23.5127C63.7419 24.4079 63.3797 25.3071 63.0542 26.2104C62.7368 27.1138 62.4683 27.9845 62.2485 28.8228C62.0207 29.661 61.8457 30.4463 61.7236 31.1787C61.6016 31.9111 61.5405 32.554 61.5405 33.1074C61.5405 33.2458 61.5487 33.3963 61.5649 33.5591C61.5812 33.7218 61.6138 33.8724 61.6626 34.0107C61.7114 34.1491 61.7806 34.263 61.8701 34.3525C61.9596 34.4502 62.0776 34.499 62.2241 34.499C62.4927 34.499 62.7246 34.3281 62.9199 33.9863C63.1152 33.6527 63.278 33.1969 63.4082 32.6191C63.5465 32.0495 63.6605 31.3903 63.75 30.6416C63.8395 29.901 63.9087 29.1239 63.9575 28.3101C64.0145 27.4963 64.0552 26.6743 64.0796 25.8442C64.104 25.0223 64.1243 24.2451 64.1406 23.5127ZM81.5723 19.5942C81.5397 19.6593 81.4705 19.7977 81.3647 20.0093C81.2671 20.2127 81.1369 20.4487 80.9741 20.7173C80.8195 20.9858 80.6364 21.2666 80.4248 21.5596C80.2132 21.8525 79.9772 22.1211 79.7168 22.3652C79.4564 22.6094 79.1756 22.8128 78.8745 22.9756C78.5734 23.1302 78.256 23.2075 77.9224 23.2075C77.4504 23.2075 77.0516 23.057 76.7261 22.7559C76.4087 22.4548 76.1768 22.0763 76.0303 21.6206C75.7536 22.0845 75.424 22.4548 75.0415 22.7314C74.659 23 74.2765 23.1343 73.894 23.1343C73.5929 23.1343 73.3203 23.0814 73.0762 22.9756C72.832 22.8617 72.6245 22.707 72.4536 22.5117C72.2827 22.3083 72.1484 22.0723 72.0508 21.8037C71.9613 21.5352 71.9165 21.2422 71.9165 20.9248C71.9165 20.29 72.0223 19.7326 72.2339 19.2524C72.4536 18.7642 72.7303 18.3573 73.064 18.0317C73.3976 17.7062 73.7638 17.4621 74.1626 17.2993C74.5695 17.1366 74.9601 17.0552 75.3345 17.0552C75.5868 17.0552 75.8187 17.0918 76.0303 17.165C76.2419 17.2301 76.4209 17.3034 76.5674 17.3848C76.722 17.4661 76.84 17.5435 76.9214 17.6167C77.0028 17.6818 77.0475 17.7184 77.0557 17.7266C77.1452 17.8324 77.1899 17.9422 77.1899 18.0562C77.1899 18.1782 77.1452 18.2881 77.0557 18.3857C76.9661 18.4753 76.8604 18.52 76.7383 18.52C76.6081 18.52 76.4982 18.4753 76.4087 18.3857C76.3924 18.3695 76.3558 18.341 76.2988 18.3003C76.2419 18.2515 76.1646 18.2026 76.0669 18.1538C75.9692 18.105 75.8512 18.0643 75.7129 18.0317C75.5827 17.991 75.4321 17.9707 75.2612 17.9707C75.009 17.9707 74.7404 18.0277 74.4556 18.1416C74.1707 18.2555 73.9103 18.4346 73.6743 18.6787C73.4383 18.9147 73.2389 19.2158 73.0762 19.582C72.9215 19.9401 72.8442 20.3674 72.8442 20.8638C72.8442 21.0184 72.8605 21.1771 72.8931 21.3398C72.9256 21.4945 72.9826 21.6369 73.064 21.7671C73.1453 21.8973 73.2552 22.0031 73.3936 22.0845C73.5319 22.1659 73.7028 22.2065 73.9062 22.2065C74.0527 22.2065 74.2196 22.1577 74.4067 22.0601C74.6021 21.9624 74.7852 21.8118 74.9561 21.6084C75.1351 21.4049 75.2938 21.1486 75.4321 20.8394C75.5786 20.5301 75.6803 20.1639 75.7373 19.7407C75.7536 19.6268 75.8065 19.5332 75.896 19.46C75.9855 19.3786 76.0913 19.3379 76.2134 19.3379C76.3273 19.3379 76.425 19.3826 76.5063 19.4722C76.5959 19.5617 76.6447 19.6634 76.6528 19.7773C76.661 19.932 76.6772 20.1517 76.7017 20.4365C76.7261 20.7132 76.779 20.9899 76.8604 21.2666C76.9499 21.5433 77.0801 21.7834 77.251 21.9868C77.4219 22.1903 77.6579 22.292 77.959 22.292C78.1543 22.292 78.3455 22.2391 78.5327 22.1333C78.728 22.0275 78.9152 21.8892 79.0942 21.7183C79.2814 21.5392 79.4564 21.3398 79.6191 21.1201C79.79 20.8923 79.9447 20.6644 80.083 20.4365C80.2214 20.2087 80.3434 19.9889 80.4492 19.7773C80.555 19.5658 80.6445 19.3826 80.7178 19.228C80.7585 19.1385 80.8154 19.0693 80.8887 19.0205C80.9701 18.9717 81.0555 18.9473 81.145 18.9473C81.2834 18.9473 81.3932 19.0002 81.4746 19.106C81.5641 19.2036 81.6089 19.3094 81.6089 19.4233C81.6089 19.4803 81.5967 19.5373 81.5723 19.5942ZM85.4907 25.8076C85.4907 26.0029 85.4541 26.1901 85.3809 26.3691C85.3076 26.5563 85.1978 26.7231 85.0513 26.8696C84.9048 27.0161 84.7217 27.1341 84.502 27.2236C84.2904 27.3132 84.0462 27.3579 83.7695 27.3579C83.6068 27.3579 83.4318 27.3376 83.2446 27.2969C83.0575 27.2643 82.8866 27.2114 82.7319 27.1382C82.5773 27.0649 82.4471 26.9754 82.3413 26.8696C82.2437 26.772 82.1948 26.658 82.1948 26.5278C82.1948 26.4058 82.2355 26.3081 82.3169 26.2349C82.4064 26.1698 82.5041 26.1372 82.6099 26.1372C82.675 26.1372 82.7401 26.1576 82.8052 26.1982C82.8703 26.2471 82.9435 26.2959 83.0249 26.3447C83.1144 26.4017 83.2161 26.4505 83.3301 26.4912C83.4521 26.54 83.5946 26.5645 83.7573 26.5645C84.0015 26.5645 84.2131 26.4993 84.3921 26.3691C84.5711 26.2471 84.6606 26.0558 84.6606 25.7954C84.6606 25.6489 84.6322 25.5269 84.5752 25.4292C84.5264 25.3315 84.4613 25.2502 84.3799 25.1851C84.3066 25.1281 84.2212 25.0874 84.1235 25.063C84.0259 25.0386 83.9364 25.0264 83.855 25.0264C83.7166 25.0264 83.6027 25.0386 83.5132 25.063C83.4237 25.0874 83.3504 25.0996 83.2935 25.0996C83.1877 25.0996 83.0981 25.0671 83.0249 25.002C82.9598 24.945 82.9272 24.8595 82.9272 24.7456C82.9272 24.6805 82.9354 24.6195 82.9517 24.5625C82.9679 24.5137 82.9842 24.4648 83.0005 24.416L83.3057 23.5859C82.8988 23.5452 82.5366 23.4313 82.2192 23.2441C81.9019 23.0651 81.6333 22.8291 81.4136 22.5361C81.202 22.235 81.0392 21.8851 80.9253 21.4863C80.8114 21.0876 80.7544 20.6562 80.7544 20.1924C80.7544 19.7041 80.8236 19.2484 80.9619 18.8252C81.1003 18.3939 81.2874 18.0195 81.5234 17.7021C81.7676 17.3848 82.0483 17.1366 82.3657 16.9575C82.6831 16.7703 83.0208 16.6768 83.3789 16.6768C83.6475 16.6768 83.8916 16.7256 84.1113 16.8232C84.3311 16.9128 84.5142 17.0348 84.6606 17.1895C84.8153 17.3441 84.9333 17.515 85.0146 17.7021C85.1042 17.8893 85.1489 18.0765 85.1489 18.2637C85.1489 18.4427 85.1245 18.6095 85.0757 18.7642C85.035 18.9188 84.978 19.0571 84.9048 19.1792C84.8397 19.2931 84.7624 19.3867 84.6729 19.46C84.5833 19.5251 84.4938 19.5576 84.4043 19.5576C84.266 19.5576 84.152 19.5129 84.0625 19.4233C83.9811 19.3338 83.9404 19.224 83.9404 19.0938C83.9404 19.0286 83.9526 18.9717 83.9771 18.9229C84.0096 18.874 84.0422 18.8252 84.0747 18.7764C84.1154 18.7194 84.1479 18.6543 84.1724 18.5811C84.2049 18.4997 84.2212 18.3979 84.2212 18.2759C84.2212 18.105 84.1398 17.9504 83.9771 17.812C83.8224 17.6737 83.623 17.6045 83.3789 17.6045C83.151 17.6045 82.9313 17.6737 82.7197 17.812C82.5163 17.9504 82.3372 18.1375 82.1826 18.3735C82.028 18.6014 81.9019 18.874 81.8042 19.1914C81.7147 19.5007 81.6699 19.8302 81.6699 20.1802C81.6699 20.5138 81.7106 20.8312 81.792 21.1323C81.8734 21.4334 81.9954 21.702 82.1582 21.938C82.321 22.1659 82.5244 22.349 82.7686 22.4873C83.0208 22.6257 83.3179 22.6948 83.6597 22.6948C84.0991 22.6948 84.506 22.6175 84.8804 22.4629C85.2547 22.3001 85.5965 22.0967 85.9058 21.8525C86.215 21.6084 86.4876 21.3439 86.7236 21.0591C86.9596 20.7661 87.159 20.4935 87.3218 20.2412C87.4927 19.9808 87.6229 19.757 87.7124 19.5698C87.8101 19.3745 87.867 19.2524 87.8833 19.2036C87.9159 19.1222 87.9688 19.0612 88.042 19.0205C88.1234 18.9717 88.2088 18.9473 88.2983 18.9473C88.4367 18.9473 88.5465 18.9961 88.6279 19.0938C88.7174 19.1914 88.7622 19.3013 88.7622 19.4233C88.7622 19.4722 88.7459 19.5373 88.7134 19.6187C88.6727 19.7082 88.5954 19.8628 88.4814 20.0825C88.3757 20.2941 88.2292 20.5382 88.042 20.8149C87.863 21.0835 87.6473 21.3683 87.395 21.6694C87.1509 21.9705 86.866 22.2554 86.5405 22.5239C86.2231 22.7843 85.8651 23.0081 85.4663 23.1953C85.0757 23.3906 84.6444 23.5168 84.1724 23.5737C84.1561 23.6144 84.1398 23.6551 84.1235 23.6958C84.1154 23.7446 84.1073 23.7772 84.0991 23.7935L83.9282 24.2695C84.1154 24.2695 84.3026 24.298 84.4897 24.355C84.6769 24.4201 84.8438 24.5177 84.9902 24.6479C85.1367 24.7782 85.2547 24.9368 85.3442 25.124C85.4419 25.3193 85.4907 25.5472 85.4907 25.8076ZM93.5107 21.6572C93.3073 21.6572 93.1283 21.641 92.9736 21.6084C92.8516 21.8525 92.7051 22.0804 92.5342 22.292C92.3633 22.4954 92.1639 22.6745 91.936 22.8291C91.7163 22.9837 91.4681 23.1058 91.1914 23.1953C90.9147 23.2848 90.6136 23.3296 90.2881 23.3296C89.9056 23.3296 89.5557 23.2604 89.2383 23.1221C88.9209 22.9919 88.6442 22.8088 88.4082 22.5728C88.1722 22.3286 87.9891 22.0397 87.8589 21.7061C87.7287 21.3643 87.6636 20.9899 87.6636 20.583C87.6636 20.0622 87.7572 19.6105 87.9443 19.228C88.1315 18.8374 88.3472 18.516 88.5913 18.2637C88.8354 18.0033 89.0796 17.812 89.3237 17.6899C89.5679 17.5597 89.751 17.4946 89.873 17.4946C90.0114 17.4946 90.1131 17.5312 90.1782 17.6045C90.2515 17.6777 90.2881 17.7754 90.2881 17.8975C90.2881 18.0358 90.2433 18.1416 90.1538 18.2148C90.0724 18.2799 89.9666 18.3451 89.8364 18.4102C89.7062 18.4753 89.5679 18.5688 89.4214 18.6909C89.2749 18.8049 89.1366 18.9513 89.0063 19.1304C88.8843 19.3094 88.7826 19.521 88.7012 19.7651C88.6198 20.0093 88.5791 20.2819 88.5791 20.583C88.5791 20.8516 88.6198 21.1038 88.7012 21.3398C88.7826 21.5677 88.9006 21.7671 89.0552 21.938C89.2098 22.1007 89.3929 22.231 89.6045 22.3286C89.8161 22.4181 90.0521 22.4629 90.3125 22.4629C90.7764 22.4629 91.1589 22.3571 91.46 22.1455C91.7692 21.9258 92.0052 21.6491 92.168 21.3154C91.6878 21.0632 91.2931 20.7051 90.9839 20.2412C90.6746 19.7773 90.52 19.2565 90.52 18.6787C90.52 18.2148 90.6299 17.8364 90.8496 17.5435C91.0775 17.2505 91.3745 17.104 91.7407 17.104C91.9604 17.104 92.168 17.1569 92.3633 17.2627C92.5586 17.3685 92.7295 17.5353 92.876 17.7632C93.0306 17.991 93.1527 18.284 93.2422 18.6421C93.3317 19.0002 93.3765 19.4274 93.3765 19.9238C93.3765 20.1842 93.3439 20.4569 93.2788 20.7417C93.3276 20.7498 93.3765 20.7539 93.4253 20.7539C93.4741 20.7539 93.527 20.7539 93.584 20.7539C93.8607 20.7539 94.1089 20.7214 94.3286 20.6562C94.5483 20.5911 94.7477 20.4935 94.9268 20.3633C95.1058 20.2331 95.2645 20.0662 95.4028 19.8628C95.5493 19.6593 95.6877 19.4233 95.8179 19.1548C95.8423 19.106 95.8952 19.0612 95.9766 19.0205C96.0579 18.9717 96.1393 18.9473 96.2207 18.9473C96.3265 18.9473 96.4242 18.992 96.5137 19.0815C96.6113 19.1629 96.6602 19.2728 96.6602 19.4111C96.6602 19.4762 96.6439 19.5495 96.6113 19.6309C96.5788 19.7041 96.5462 19.7733 96.5137 19.8384C96.3753 20.0825 96.2126 20.3185 96.0254 20.5464C95.8464 20.7661 95.6307 20.9614 95.3784 21.1323C95.1343 21.2951 94.8576 21.4253 94.5483 21.5229C94.2391 21.6206 93.8932 21.6654 93.5107 21.6572ZM91.4233 18.5811C91.4233 18.7357 91.4437 18.8984 91.4844 19.0693C91.5251 19.2402 91.5861 19.4111 91.6675 19.582C91.757 19.7448 91.8628 19.9035 91.9849 20.0581C92.1151 20.2046 92.2656 20.3307 92.4365 20.4365C92.4609 20.2656 92.4731 20.0988 92.4731 19.936C92.4731 19.7163 92.4569 19.4925 92.4243 19.2646C92.3918 19.0368 92.3429 18.8293 92.2778 18.6421C92.2209 18.4468 92.1476 18.2922 92.0581 18.1782C91.9686 18.0562 91.8628 17.9951 91.7407 17.9951C91.6919 17.9951 91.6268 18.0317 91.5454 18.105C91.464 18.1782 91.4233 18.3369 91.4233 18.5811ZM122.966 10.1826C122.942 10.2965 122.889 10.3861 122.808 10.4512C122.726 10.5163 122.637 10.5488 122.539 10.5488C122.393 10.5488 122.275 10.5041 122.185 10.4146C122.096 10.3169 122.051 10.207 122.051 10.085C122.051 9.96289 122.063 9.84489 122.087 9.73096C122.112 9.60889 122.124 9.49089 122.124 9.37695C122.124 8.78288 121.941 8.24984 121.575 7.77783C121.208 7.30583 120.688 6.91113 120.012 6.59375C119.345 6.26823 118.531 6.02002 117.571 5.84912C116.611 5.67822 115.54 5.59277 114.36 5.59277C113.457 5.59277 112.546 5.65381 111.626 5.77588C110.715 5.88981 109.836 6.06071 108.989 6.28857C108.151 6.5083 107.366 6.78906 106.633 7.13086C105.901 7.46452 105.262 7.85514 104.717 8.30273C104.18 8.74219 103.757 9.23454 103.447 9.77979C103.138 10.3169 102.983 10.9069 102.983 11.5498C102.983 12.0462 103.089 12.4857 103.301 12.8682C103.521 13.2425 103.818 13.5721 104.192 13.8569C104.566 14.1336 105.006 14.3737 105.51 14.5771C106.023 14.7725 106.576 14.9393 107.17 15.0776C107.764 15.2078 108.383 15.3177 109.026 15.4072C109.669 15.4886 110.316 15.5578 110.967 15.6147L112.847 15.7734C113.783 15.8548 114.621 15.9403 115.361 16.0298C116.102 16.1193 116.753 16.2332 117.314 16.3716C118.25 16.6076 118.942 16.9453 119.39 17.3848C119.837 17.8242 120.061 18.4102 120.061 19.1426C120.061 19.8506 119.866 20.4731 119.475 21.0103C119.084 21.5474 118.551 21.999 117.876 22.3652C117.201 22.7314 116.411 23.0081 115.508 23.1953C114.604 23.3825 113.636 23.4761 112.603 23.4761C111.479 23.4761 110.491 23.3988 109.636 23.2441C108.79 23.0977 108.078 22.9349 107.5 22.7559C106.93 22.5687 106.495 22.3978 106.194 22.2432C105.893 22.0885 105.73 22.0031 105.706 21.9868C105.559 21.9054 105.486 21.7752 105.486 21.5962C105.486 21.4578 105.535 21.348 105.632 21.2666C105.73 21.1771 105.836 21.1323 105.95 21.1323C106.039 21.1323 106.121 21.1567 106.194 21.2056C106.202 21.2056 106.34 21.2788 106.609 21.4253C106.886 21.5636 107.292 21.7183 107.83 21.8892C108.375 22.0601 109.046 22.2147 109.844 22.353C110.641 22.4914 111.569 22.5605 112.627 22.5605C113.677 22.5605 114.604 22.4751 115.41 22.3042C116.216 22.1333 116.891 21.8973 117.437 21.5962C117.99 21.2869 118.405 20.9289 118.682 20.522C118.966 20.1069 119.109 19.6593 119.109 19.1792C119.109 18.8944 119.056 18.6502 118.95 18.4468C118.853 18.2352 118.714 18.0562 118.535 17.9097C118.356 17.755 118.14 17.6248 117.888 17.519C117.644 17.4132 117.375 17.3237 117.083 17.2505C116.773 17.1691 116.44 17.0999 116.082 17.043C115.732 16.986 115.369 16.9372 114.995 16.8965C114.621 16.8558 114.242 16.8192 113.86 16.7866C113.486 16.7541 113.115 16.7215 112.749 16.689L110.869 16.5303C109.388 16.4082 108.094 16.221 106.987 15.9688C105.889 15.7083 104.973 15.3787 104.241 14.98C103.508 14.5731 102.959 14.0889 102.593 13.5273C102.227 12.9658 102.043 12.3107 102.043 11.562C102.043 10.797 102.214 10.0972 102.556 9.4624C102.906 8.8195 103.378 8.2417 103.972 7.729C104.574 7.21631 105.274 6.77279 106.072 6.39844C106.877 6.01595 107.736 5.69857 108.647 5.44629C109.559 5.19401 110.503 5.00684 111.479 4.88477C112.456 4.75456 113.416 4.68945 114.36 4.68945C115.54 4.68945 116.566 4.7627 117.437 4.90918C118.315 5.04753 119.064 5.23063 119.683 5.4585C120.309 5.67822 120.822 5.9305 121.221 6.21533C121.619 6.50016 121.941 6.78092 122.185 7.05762C122.763 7.73307 123.052 8.50212 123.052 9.36475C123.052 9.64958 123.023 9.9222 122.966 10.1826ZM131.255 19.5942C131.222 19.6593 131.153 19.7977 131.047 20.0093C130.95 20.2127 130.819 20.4487 130.657 20.7173C130.502 20.9858 130.319 21.2666 130.107 21.5596C129.896 21.8525 129.66 22.1211 129.399 22.3652C129.139 22.6094 128.858 22.8128 128.557 22.9756C128.256 23.1302 127.939 23.2075 127.605 23.2075C127.133 23.2075 126.734 23.057 126.409 22.7559C126.091 22.4548 125.859 22.0763 125.713 21.6206C125.436 22.0845 125.107 22.4548 124.724 22.7314C124.342 23 123.959 23.1343 123.577 23.1343C123.276 23.1343 123.003 23.0814 122.759 22.9756C122.515 22.8617 122.307 22.707 122.136 22.5117C121.965 22.3083 121.831 22.0723 121.733 21.8037C121.644 21.5352 121.599 21.2422 121.599 20.9248C121.599 20.29 121.705 19.7326 121.917 19.2524C122.136 18.7642 122.413 18.3573 122.747 18.0317C123.08 17.7062 123.446 17.4621 123.845 17.2993C124.252 17.1366 124.643 17.0552 125.017 17.0552C125.269 17.0552 125.501 17.0918 125.713 17.165C125.924 17.2301 126.104 17.3034 126.25 17.3848C126.405 17.4661 126.523 17.5435 126.604 17.6167C126.685 17.6818 126.73 17.7184 126.738 17.7266C126.828 17.8324 126.873 17.9422 126.873 18.0562C126.873 18.1782 126.828 18.2881 126.738 18.3857C126.649 18.4753 126.543 18.52 126.421 18.52C126.291 18.52 126.181 18.4753 126.091 18.3857C126.075 18.3695 126.038 18.341 125.981 18.3003C125.924 18.2515 125.847 18.2026 125.75 18.1538C125.652 18.105 125.534 18.0643 125.396 18.0317C125.265 17.991 125.115 17.9707 124.944 17.9707C124.692 17.9707 124.423 18.0277 124.138 18.1416C123.853 18.2555 123.593 18.4346 123.357 18.6787C123.121 18.9147 122.922 19.2158 122.759 19.582C122.604 19.9401 122.527 20.3674 122.527 20.8638C122.527 21.0184 122.543 21.1771 122.576 21.3398C122.608 21.4945 122.665 21.6369 122.747 21.7671C122.828 21.8973 122.938 22.0031 123.076 22.0845C123.215 22.1659 123.385 22.2065 123.589 22.2065C123.735 22.2065 123.902 22.1577 124.089 22.0601C124.285 21.9624 124.468 21.8118 124.639 21.6084C124.818 21.4049 124.976 21.1486 125.115 20.8394C125.261 20.5301 125.363 20.1639 125.42 19.7407C125.436 19.6268 125.489 19.5332 125.579 19.46C125.668 19.3786 125.774 19.3379 125.896 19.3379C126.01 19.3379 126.108 19.3826 126.189 19.4722C126.278 19.5617 126.327 19.6634 126.335 19.7773C126.344 19.932 126.36 20.1517 126.384 20.4365C126.409 20.7132 126.462 20.9899 126.543 21.2666C126.632 21.5433 126.763 21.7834 126.934 21.9868C127.104 22.1903 127.34 22.292 127.642 22.292C127.837 22.292 128.028 22.2391 128.215 22.1333C128.411 22.0275 128.598 21.8892 128.777 21.7183C128.964 21.5392 129.139 21.3398 129.302 21.1201C129.473 20.8923 129.627 20.6644 129.766 20.4365C129.904 20.2087 130.026 19.9889 130.132 19.7773C130.238 19.5658 130.327 19.3826 130.4 19.228C130.441 19.1385 130.498 19.0693 130.571 19.0205C130.653 18.9717 130.738 18.9473 130.828 18.9473C130.966 18.9473 131.076 19.0002 131.157 19.106C131.247 19.2036 131.292 19.3094 131.292 19.4233C131.292 19.4803 131.279 19.5373 131.255 19.5942ZM134.465 21.6328C134.181 22.0967 133.847 22.4629 133.464 22.7314C133.09 23 132.712 23.1343 132.329 23.1343C132.02 23.1343 131.743 23.0773 131.499 22.9634C131.255 22.8494 131.043 22.6908 130.864 22.4873C130.685 22.2757 130.547 22.0234 130.449 21.7305C130.36 21.4375 130.315 21.1079 130.315 20.7417C130.315 20.172 130.368 19.6675 130.474 19.228C130.588 18.7886 130.71 18.4224 130.84 18.1294C130.97 17.8283 131.092 17.6004 131.206 17.4458C131.32 17.2912 131.377 17.2139 131.377 17.2139C131.418 17.165 131.466 17.1284 131.523 17.104C131.589 17.0796 131.654 17.0674 131.719 17.0674C131.849 17.0674 131.955 17.1162 132.036 17.2139C132.126 17.3034 132.17 17.4092 132.17 17.5312C132.17 17.5801 132.158 17.6289 132.134 17.6777C132.118 17.7266 132.097 17.7754 132.073 17.8242C132.032 17.8975 131.967 18.0114 131.877 18.166C131.788 18.3125 131.694 18.5078 131.597 18.752C131.499 18.9961 131.414 19.285 131.34 19.6187C131.267 19.9442 131.23 20.3185 131.23 20.7417C131.23 21.2218 131.324 21.5881 131.511 21.8403C131.707 22.0845 131.979 22.2065 132.329 22.2065C132.476 22.2065 132.642 22.1618 132.83 22.0723C133.025 21.9746 133.212 21.8281 133.391 21.6328C133.578 21.4375 133.741 21.1893 133.879 20.8882C134.018 20.5871 134.107 20.2331 134.148 19.8262L134.331 17.7266C134.347 17.6045 134.4 17.5028 134.49 17.4214C134.579 17.34 134.685 17.2993 134.807 17.2993C134.945 17.2993 135.055 17.3522 135.137 17.458C135.218 17.5557 135.259 17.6696 135.259 17.7998L135.1 19.8262C135.084 19.9971 135.088 20.2209 135.112 20.4976C135.145 20.7743 135.206 21.0469 135.295 21.3154C135.385 21.584 135.519 21.8159 135.698 22.0112C135.877 22.1984 136.113 22.292 136.406 22.292C136.618 22.292 136.825 22.2391 137.029 22.1333C137.232 22.0194 137.428 21.8729 137.615 21.6938C137.802 21.5148 137.973 21.3154 138.127 21.0957C138.29 20.8678 138.437 20.64 138.567 20.4121C138.705 20.1842 138.823 19.9686 138.921 19.7651C139.019 19.5535 139.1 19.3745 139.165 19.228C139.206 19.1385 139.263 19.0693 139.336 19.0205C139.409 18.9717 139.491 18.9473 139.58 18.9473C139.727 18.9473 139.84 18.9961 139.922 19.0938C140.003 19.1914 140.044 19.2972 140.044 19.4111C140.044 19.4762 140.032 19.5373 140.007 19.5942C139.975 19.6593 139.91 19.7977 139.812 20.0093C139.722 20.2127 139.6 20.4487 139.446 20.7173C139.299 20.9777 139.12 21.2544 138.909 21.5474C138.697 21.8403 138.461 22.113 138.201 22.3652C137.94 22.6094 137.655 22.8128 137.346 22.9756C137.045 23.1302 136.72 23.2075 136.37 23.2075C135.889 23.2075 135.491 23.0732 135.173 22.8047C134.856 22.528 134.62 22.1374 134.465 21.6328ZM132.842 15.1753L134.795 13.3198C134.876 13.2466 134.97 13.21 135.076 13.21C135.181 13.21 135.275 13.2507 135.356 13.332C135.438 13.4134 135.479 13.5111 135.479 13.625C135.479 13.7389 135.438 13.8325 135.356 13.9058L133.403 15.7612C133.314 15.8345 133.22 15.8711 133.123 15.8711C133.009 15.8711 132.911 15.8304 132.83 15.749C132.756 15.6676 132.72 15.5741 132.72 15.4683C132.72 15.3543 132.76 15.2567 132.842 15.1753ZM143.914 19.4478C144.312 21.3276 144.89 22.2676 145.647 22.2676C145.94 22.2676 146.221 22.1618 146.489 21.9502C146.758 21.7305 147.006 21.466 147.234 21.1567C147.47 20.8394 147.677 20.5057 147.856 20.1558C148.035 19.8058 148.182 19.5007 148.296 19.2402C148.377 19.0449 148.52 18.9473 148.723 18.9473C148.853 18.9473 148.963 18.9961 149.053 19.0938C149.142 19.1914 149.187 19.2972 149.187 19.4111C149.187 19.4762 149.175 19.5332 149.15 19.582C149.093 19.7204 149.008 19.9076 148.894 20.1436C148.788 20.3714 148.654 20.6196 148.491 20.8882C148.337 21.1486 148.162 21.4172 147.966 21.6938C147.771 21.9705 147.555 22.2188 147.319 22.4385C147.083 22.6582 146.831 22.8413 146.562 22.9878C146.302 23.1261 146.025 23.1953 145.732 23.1953C145.187 23.1953 144.719 23.0081 144.329 22.6338C143.938 22.2513 143.6 21.6247 143.315 20.7539C142.925 21.584 142.53 22.1862 142.131 22.5605C141.733 22.9349 141.301 23.1221 140.837 23.1221C140.593 23.1221 140.357 23.0814 140.129 23C139.902 22.9268 139.702 22.8006 139.531 22.6216C139.36 22.4425 139.222 22.2147 139.116 21.938C139.01 21.6532 138.958 21.3073 138.958 20.9004C138.958 20.3389 139.055 19.8221 139.25 19.3501C139.446 18.8781 139.698 18.4753 140.007 18.1416C140.317 17.7998 140.658 17.5353 141.033 17.3481C141.415 17.161 141.794 17.0674 142.168 17.0674C142.29 17.0674 142.396 17.1121 142.485 17.2017C142.575 17.283 142.62 17.3888 142.62 17.519C142.62 17.633 142.583 17.7347 142.51 17.8242C142.437 17.9137 142.339 17.9666 142.217 17.9829C141.973 18.0155 141.712 18.0928 141.436 18.2148C141.159 18.3369 140.903 18.516 140.667 18.752C140.439 18.9798 140.247 19.2728 140.093 19.6309C139.946 19.9889 139.873 20.4162 139.873 20.9126C139.873 21.3195 139.954 21.6369 140.117 21.8647C140.288 22.0926 140.532 22.2065 140.85 22.2065C140.98 22.2065 141.118 22.174 141.265 22.1089C141.411 22.0356 141.566 21.8973 141.729 21.6938C141.899 21.4904 142.083 21.2015 142.278 20.8271C142.481 20.4528 142.705 19.9604 142.949 19.3501C142.811 18.634 142.685 17.8079 142.571 16.8721C142.457 15.9362 142.4 14.8905 142.4 13.7349C142.4 13.2303 142.416 12.7054 142.449 12.1602C142.481 11.6068 142.534 11.0697 142.607 10.5488C142.681 10.0199 142.778 9.51937 142.9 9.04736C143.022 8.57536 143.169 8.16032 143.34 7.80225C143.519 7.44417 143.726 7.16341 143.962 6.95996C144.198 6.74837 144.467 6.64258 144.768 6.64258C145.037 6.64258 145.264 6.71582 145.452 6.8623C145.639 7.00879 145.789 7.21224 145.903 7.47266C146.025 7.73307 146.115 8.04639 146.172 8.4126C146.229 8.77881 146.257 9.18164 146.257 9.62109C146.257 10.5651 146.176 11.5091 146.013 12.4531C145.85 13.3971 145.647 14.3005 145.403 15.1631C145.167 16.0257 144.915 16.8232 144.646 17.5557C144.377 18.2881 144.133 18.9188 143.914 19.4478ZM145.342 9.60889C145.342 9.40544 145.334 9.18571 145.317 8.94971C145.309 8.7137 145.281 8.49398 145.232 8.29053C145.191 8.07894 145.134 7.90397 145.061 7.76562C144.988 7.62728 144.89 7.55811 144.768 7.55811C144.565 7.55811 144.373 7.73714 144.194 8.09521C144.023 8.45329 143.873 8.92529 143.743 9.51123C143.612 10.089 143.507 10.7482 143.425 11.4888C143.352 12.2212 143.315 12.9618 143.315 13.7104C143.315 14.4266 143.344 15.1427 143.401 15.8589C143.458 16.575 143.523 17.2139 143.596 17.7754C143.832 17.1488 144.056 16.5059 144.268 15.8467C144.479 15.1794 144.662 14.4998 144.817 13.8081C144.98 13.1164 145.106 12.4206 145.195 11.7207C145.293 11.0127 145.342 10.3088 145.342 9.60889ZM149.773 21.6572C149.944 21.8932 150.164 22.0845 150.432 22.231C150.701 22.3693 151.03 22.4385 151.421 22.4385C151.82 22.4385 152.182 22.3449 152.507 22.1577C152.833 21.9624 153.13 21.7101 153.398 21.4009C153.667 21.0916 153.907 20.7458 154.119 20.3633C154.33 19.9808 154.521 19.5983 154.692 19.2158C154.733 19.1263 154.79 19.0612 154.863 19.0205C154.937 18.9717 155.018 18.9473 155.107 18.9473C155.246 18.9473 155.356 18.9961 155.437 19.0938C155.527 19.1914 155.571 19.2972 155.571 19.4111C155.571 19.4518 155.567 19.4884 155.559 19.521C155.551 19.5454 155.539 19.5739 155.522 19.6064C154.961 20.8434 154.347 21.7752 153.679 22.4019C153.02 23.0285 152.271 23.3499 151.433 23.3662C150.896 23.3662 150.432 23.2604 150.042 23.0488C149.651 22.8454 149.329 22.5809 149.077 22.2554C148.825 21.9217 148.638 21.5474 148.516 21.1323C148.394 20.7173 148.333 20.3022 148.333 19.8872C148.333 19.4722 148.381 19.0897 148.479 18.7397C148.585 18.3898 148.731 18.0846 148.918 17.8242C149.114 17.5638 149.342 17.3604 149.602 17.2139C149.871 17.0674 150.164 16.9941 150.481 16.9941C150.668 16.9941 150.851 17.0348 151.03 17.1162C151.217 17.1895 151.384 17.2993 151.531 17.4458C151.677 17.5841 151.795 17.755 151.885 17.9585C151.974 18.1619 152.019 18.3939 152.019 18.6543C152.019 18.988 151.962 19.3013 151.848 19.5942C151.734 19.8872 151.576 20.1598 151.372 20.4121C151.177 20.6644 150.941 20.8963 150.664 21.1079C150.387 21.3195 150.09 21.5026 149.773 21.6572ZM149.407 20.8638C149.659 20.758 149.887 20.6237 150.09 20.4609C150.302 20.2982 150.481 20.1191 150.627 19.9238C150.774 19.7285 150.888 19.5251 150.969 19.3135C151.051 19.0938 151.091 18.874 151.091 18.6543C151.091 18.4102 151.03 18.2271 150.908 18.105C150.786 17.9748 150.644 17.9097 150.481 17.9097C150.261 17.9097 150.074 17.9707 149.919 18.0928C149.765 18.2148 149.639 18.3735 149.541 18.5688C149.443 18.7642 149.37 18.9839 149.321 19.228C149.281 19.464 149.26 19.7 149.26 19.936C149.26 20.0825 149.272 20.2371 149.297 20.3999C149.329 20.5627 149.366 20.7173 149.407 20.8638Z" fill="url(#paint0_linear_55_157)"/>
<path d="M55.73 17.812C55.7218 17.8446 55.6649 17.9829 55.5591 18.2271C55.4533 18.4712 55.2743 18.7723 55.022 19.1304C54.7778 19.4884 54.4523 19.8831 54.0454 20.3145C53.6385 20.7458 53.1258 21.1689 52.5073 21.584C51.8888 21.9909 51.1564 22.3652 50.3101 22.707C49.4637 23.0407 48.4831 23.297 47.3682 23.4761C46.6195 23.5981 45.8341 23.6592 45.0122 23.6592C44.3286 23.6592 43.641 23.6104 42.9492 23.5127C42.2656 23.4232 41.6064 23.2767 40.9717 23.0732C40.3451 22.8779 39.7591 22.6257 39.2139 22.3164C38.6686 22.0072 38.1925 21.641 37.7856 21.2178C37.3869 20.7946 37.0695 20.3104 36.8335 19.7651C36.6056 19.2118 36.4917 18.5973 36.4917 17.9219C36.4917 16.7256 36.8213 15.6961 37.4805 14.8335C38.1478 13.9709 39.1325 13.2995 40.4346 12.8193C39.9707 12.388 39.6248 11.9119 39.397 11.3911C39.1691 10.8703 39.0552 10.3291 39.0552 9.76758C39.0552 9.06771 39.2139 8.42074 39.5312 7.82666C39.8568 7.23258 40.3044 6.71989 40.874 6.28857C41.4437 5.85726 42.1191 5.5236 42.9004 5.2876C43.6898 5.04346 44.5524 4.92139 45.4883 4.92139C46.4323 4.92139 47.2542 5.0109 47.9541 5.18994C48.6621 5.36898 49.2643 5.59277 49.7607 5.86133C50.2653 6.12988 50.6763 6.42285 50.9937 6.74023C51.3192 7.05762 51.5755 7.35465 51.7627 7.63135C51.9499 7.90804 52.0801 8.14404 52.1533 8.33936C52.2266 8.52653 52.2673 8.63232 52.2754 8.65674C52.2835 8.68929 52.2876 8.73405 52.2876 8.79102C52.2876 8.90495 52.2428 9.01074 52.1533 9.1084C52.0719 9.19792 51.9621 9.24268 51.8237 9.24268C51.7261 9.24268 51.6366 9.21419 51.5552 9.15723C51.4819 9.09212 51.429 9.00667 51.3965 8.90088C51.3965 8.8846 51.3639 8.79915 51.2988 8.64453C51.2337 8.48177 51.1198 8.28646 50.957 8.05859C50.7943 7.83073 50.5705 7.59066 50.2856 7.33838C50.009 7.07796 49.6509 6.83789 49.2114 6.61816C48.772 6.3903 48.2471 6.20312 47.6367 6.05664C47.0264 5.91016 46.3102 5.83691 45.4883 5.83691C44.5443 5.83691 43.7223 5.95492 43.0225 6.19092C42.3307 6.42692 41.757 6.73617 41.3013 7.11865C40.8537 7.493 40.52 7.91211 40.3003 8.37598C40.0806 8.83984 39.9707 9.29557 39.9707 9.74316C39.9707 10.2721 40.1009 10.7767 40.3613 11.2568C40.6217 11.737 40.9961 12.1479 41.4844 12.4897C41.9238 12.3758 42.3551 12.2863 42.7783 12.2212C43.2015 12.1561 43.6003 12.1073 43.9746 12.0747C44.349 12.034 44.6867 12.0096 44.9878 12.0015C45.297 11.9852 45.5493 11.9771 45.7446 11.9771C46.1027 11.9771 46.4323 12.0055 46.7334 12.0625C47.0345 12.1113 47.2909 12.1886 47.5024 12.2944C47.7222 12.3921 47.8931 12.5223 48.0151 12.6851C48.1372 12.8397 48.1982 13.0187 48.1982 13.2222C48.1982 13.4256 48.1372 13.6087 48.0151 13.7715C47.8931 13.9342 47.7222 14.0726 47.5024 14.1865C47.2909 14.3005 47.0345 14.39 46.7334 14.4551C46.4323 14.512 46.1027 14.5405 45.7446 14.5405C45.354 14.5405 44.9593 14.5161 44.5605 14.4673C44.1618 14.4185 43.7712 14.3493 43.3887 14.2598C43.0143 14.1702 42.6522 14.0604 42.3022 13.9302C41.9523 13.7918 41.6349 13.6372 41.3501 13.4663C40.0562 13.8569 39.0755 14.4225 38.4082 15.1631C37.7409 15.8955 37.4072 16.8029 37.4072 17.8853C37.4072 18.4712 37.509 19.0002 37.7124 19.4722C37.924 19.936 38.2129 20.347 38.5791 20.7051C38.9453 21.0632 39.3726 21.3724 39.8608 21.6328C40.3573 21.8851 40.8862 22.0926 41.4478 22.2554C42.0093 22.4181 42.5952 22.5402 43.2056 22.6216C43.8159 22.6948 44.4222 22.7314 45.0244 22.7314C45.415 22.7314 45.7935 22.7192 46.1597 22.6948C46.5259 22.6623 46.8799 22.6175 47.2217 22.5605C48.2471 22.3978 49.1463 22.1618 49.9194 21.8525C50.7007 21.5352 51.3721 21.1934 51.9336 20.8271C52.5033 20.4528 52.9753 20.0744 53.3496 19.6919C53.724 19.3013 54.021 18.9473 54.2407 18.6299C54.4686 18.3044 54.6273 18.0399 54.7168 17.8364C54.8145 17.633 54.8633 17.5272 54.8633 17.519C54.8958 17.4214 54.9487 17.3481 55.022 17.2993C55.1034 17.2424 55.1929 17.2139 55.2905 17.2139C55.4207 17.2139 55.5306 17.2586 55.6201 17.3481C55.7096 17.4377 55.7544 17.5435 55.7544 17.6655C55.7544 17.6981 55.7463 17.7469 55.73 17.812ZM47.2705 13.2344C47.2705 13.1693 47.2176 13.1123 47.1118 13.0635C47.006 13.0146 46.8677 12.978 46.6968 12.9536C46.534 12.9211 46.3468 12.9007 46.1353 12.8926C45.9237 12.8763 45.708 12.8682 45.4883 12.8682C45.0081 12.8682 44.5524 12.8844 44.1211 12.917C43.6898 12.9414 43.1974 13.0065 42.644 13.1123C43.0672 13.2669 43.5514 13.3931 44.0967 13.4907C44.6501 13.5802 45.2075 13.625 45.769 13.625C46.2817 13.625 46.6602 13.5843 46.9043 13.5029C47.1484 13.4215 47.2705 13.332 47.2705 13.2344ZM58.3057 18.4834C58.2568 18.6136 58.1958 18.7601 58.1226 18.9229C58.0575 19.0856 57.9801 19.2565 57.8906 19.4355C57.8174 19.5739 57.7401 19.6838 57.6587 19.7651C57.5854 19.8384 57.4878 19.875 57.3657 19.875C57.2274 19.875 57.1175 19.8343 57.0361 19.7529C56.9548 19.6634 56.9141 19.5617 56.9141 19.4478C56.9141 19.4071 56.9181 19.3745 56.9263 19.3501C56.9344 19.3175 56.9548 19.2687 56.9873 19.2036C57.1989 18.7967 57.3535 18.4427 57.4512 18.1416C57.557 17.8324 57.6424 17.5109 57.7075 17.1772C57.6506 16.9901 57.6099 16.8314 57.5854 16.7012C57.561 16.571 57.5488 16.4367 57.5488 16.2983C57.5488 16.0298 57.6058 15.8141 57.7197 15.6514C57.8337 15.4805 57.9924 15.395 58.1958 15.395C58.383 15.395 58.5295 15.4764 58.6353 15.6392C58.7492 15.8019 58.8062 16.0013 58.8062 16.2373C58.8062 16.3675 58.7939 16.4977 58.7695 16.6279C58.7451 16.7581 58.7126 16.9209 58.6719 17.1162C58.859 17.5801 59.0462 17.991 59.2334 18.3491C59.4206 18.7072 59.5874 19.0368 59.7339 19.3379C59.8804 19.6309 59.9984 19.9076 60.0879 20.168C60.1855 20.4284 60.2344 20.6888 60.2344 20.9492C60.2344 21.291 60.1652 21.6165 60.0269 21.9258C59.8885 22.235 59.6606 22.4954 59.3433 22.707C59.384 22.7152 59.4246 22.7192 59.4653 22.7192C59.506 22.7192 59.5467 22.7192 59.5874 22.7192C60.0513 22.7192 60.4785 22.6134 60.8691 22.4019C61.2598 22.1903 61.6097 21.9176 61.9189 21.584C62.2363 21.2422 62.5171 20.8678 62.7612 20.4609C63.0054 20.0459 63.217 19.6349 63.396 19.228C63.4774 19.0409 63.5913 18.9473 63.7378 18.9473C63.8761 18.9473 63.9819 18.9961 64.0552 19.0938C64.1366 19.1914 64.1772 19.2972 64.1772 19.4111C64.1772 19.4762 64.165 19.5373 64.1406 19.5942C64.0511 19.814 63.9331 20.0662 63.7866 20.3511C63.6483 20.6278 63.4774 20.9167 63.2739 21.2178C63.0786 21.5107 62.8507 21.7996 62.5903 22.0845C62.3299 22.3693 62.0369 22.6257 61.7114 22.8535C61.394 23.0732 61.0441 23.2482 60.6616 23.3784C60.2791 23.5168 59.86 23.5859 59.4043 23.5859C58.859 23.5859 58.3504 23.4883 57.8784 23.293C57.4146 23.1058 57.0361 22.7925 56.7432 22.353C56.6943 22.2798 56.6699 22.2025 56.6699 22.1211C56.6699 21.999 56.7147 21.8932 56.8042 21.8037C56.9019 21.7061 57.0117 21.6572 57.1338 21.6572C57.264 21.6572 57.3739 21.702 57.4634 21.7915C57.4715 21.8078 57.5 21.8363 57.5488 21.877C57.5977 21.9095 57.6546 21.9502 57.7197 21.999C57.793 22.0397 57.8743 22.0763 57.9639 22.1089C58.0615 22.1414 58.1592 22.1577 58.2568 22.1577C58.4521 22.1577 58.6149 22.117 58.7451 22.0356C58.8835 21.9543 58.9933 21.8566 59.0747 21.7427C59.1561 21.6206 59.2131 21.4945 59.2456 21.3643C59.2863 21.2259 59.3066 21.1079 59.3066 21.0103C59.3066 20.8068 59.2741 20.6034 59.209 20.3999C59.1439 20.1965 59.0584 19.993 58.9526 19.7896C58.855 19.5861 58.7451 19.3786 58.623 19.167C58.5091 18.9473 58.4033 18.7194 58.3057 18.4834ZM69.5605 19.5942C69.5605 20.3429 69.4263 20.9818 69.1577 21.5107C68.8892 22.0397 68.5596 22.4425 68.1689 22.7192H68.2178C68.6979 22.7192 69.1333 22.6134 69.5239 22.4019C69.9227 22.1821 70.2808 21.9054 70.5981 21.5718C70.9155 21.23 71.2004 20.8516 71.4526 20.4365C71.7049 20.0215 71.9287 19.6187 72.124 19.228C72.1647 19.1385 72.2217 19.0693 72.2949 19.0205C72.3763 18.9717 72.4618 18.9473 72.5513 18.9473C72.6896 18.9473 72.7995 18.9961 72.8809 19.0938C72.9622 19.1914 73.0029 19.2972 73.0029 19.4111C73.0029 19.4762 72.9907 19.5373 72.9663 19.5942C72.7547 20.0662 72.5024 20.5423 72.2095 21.0225C71.9165 21.4945 71.5747 21.9217 71.1841 22.3042C70.7935 22.6867 70.354 22.9959 69.8657 23.2319C69.3774 23.4761 68.8363 23.5981 68.2422 23.5981C67.8109 23.5981 67.3918 23.529 66.9849 23.3906C66.578 23.2604 66.2199 23.0529 65.9106 22.7681C65.7967 22.6785 65.6991 22.585 65.6177 22.4873C65.5363 22.3815 65.4712 22.2839 65.4224 22.1943C65.4061 22.1781 65.3979 22.1618 65.3979 22.1455C65.3491 22.0723 65.3247 21.995 65.3247 21.9136C65.3247 21.8078 65.3613 21.7101 65.4346 21.6206C65.4427 21.6043 65.4508 21.5962 65.459 21.5962C65.4671 21.5881 65.4753 21.5799 65.4834 21.5718C65.5648 21.4985 65.6543 21.4578 65.752 21.4497H65.7886C65.8293 21.4497 65.8577 21.4538 65.874 21.4619C65.8822 21.4619 65.8862 21.466 65.8862 21.4741C65.8944 21.4741 65.9025 21.4741 65.9106 21.4741C65.9351 21.4741 65.9635 21.4823 65.9961 21.4985C66.0042 21.5067 66.0124 21.5107 66.0205 21.5107C66.0938 21.5596 66.1548 21.6206 66.2036 21.6938C66.2606 21.7915 66.3257 21.881 66.3989 21.9624C66.464 22.0275 66.5413 22.0885 66.6309 22.1455C66.7204 22.1943 66.8221 22.2188 66.936 22.2188C67.1395 22.2188 67.3429 22.1577 67.5464 22.0356C67.7498 21.9136 67.9329 21.7386 68.0957 21.5107C68.2585 21.2829 68.3887 21.0062 68.4863 20.6807C68.5921 20.3551 68.645 19.993 68.645 19.5942C68.645 19.3013 68.6125 19.0531 68.5474 18.8496C68.4904 18.638 68.4131 18.4671 68.3154 18.3369C68.2259 18.2067 68.1283 18.1131 68.0225 18.0562C67.9167 17.991 67.8149 17.9585 67.7173 17.9585C67.4976 17.9585 67.2738 18.0724 67.0459 18.3003C66.8262 18.5282 66.6064 18.8171 66.3867 19.167C66.167 19.5169 65.9473 19.9035 65.7275 20.3267C65.516 20.7498 65.3003 21.1608 65.0806 21.5596C65.0643 22.8779 65.0399 24.1353 65.0073 25.3315C64.9829 26.5278 64.9341 27.6387 64.8608 28.6641C64.7957 29.6895 64.7021 30.6172 64.5801 31.4473C64.458 32.2773 64.2912 32.9854 64.0796 33.5713C63.868 34.1654 63.6076 34.6211 63.2983 34.9385C62.9891 35.2559 62.6107 35.4146 62.1631 35.4146C62.0247 35.4146 61.866 35.3861 61.687 35.3291C61.508 35.2721 61.3411 35.1541 61.1865 34.9751C61.0319 34.8042 60.9017 34.556 60.7959 34.2305C60.6901 33.9049 60.6372 33.4696 60.6372 32.9243C60.6372 32.2326 60.7227 31.431 60.8936 30.5195C61.0645 29.6081 61.3086 28.6396 61.626 27.6143C61.9352 26.597 62.3055 25.5513 62.7368 24.4771C63.1681 23.4028 63.6442 22.3571 64.165 21.3398C64.165 21.055 64.165 20.7743 64.165 20.4976C64.1732 20.2209 64.1772 19.9523 64.1772 19.6919C64.0715 19.814 63.9453 19.875 63.7988 19.875C63.6605 19.875 63.5506 19.8262 63.4692 19.7285C63.3879 19.6309 63.3472 19.5251 63.3472 19.4111C63.3472 19.3542 63.3594 19.2931 63.3838 19.228C63.5791 18.7804 63.7297 18.3573 63.8354 17.9585C63.9412 17.5516 64.0186 17.1976 64.0674 16.8965C64.1243 16.5872 64.1569 16.3431 64.165 16.1641C64.1732 15.985 64.1772 15.8914 64.1772 15.8833C64.1772 15.7612 64.222 15.6554 64.3115 15.5659C64.401 15.4764 64.5109 15.4316 64.6411 15.4316C64.7632 15.4316 64.869 15.4764 64.9585 15.5659C65.048 15.6473 65.0928 15.7531 65.0928 15.8833V19.6309C65.2799 19.3135 65.4671 19.0002 65.6543 18.6909C65.8415 18.3817 66.0368 18.105 66.2402 17.8608C66.4518 17.6167 66.6756 17.4214 66.9116 17.2749C67.1558 17.1203 67.4243 17.043 67.7173 17.043C67.994 17.043 68.2463 17.1081 68.4741 17.2383C68.702 17.3685 68.8973 17.5475 69.0601 17.7754C69.2228 18.0033 69.3449 18.2759 69.4263 18.5933C69.5158 18.9025 69.5605 19.2362 69.5605 19.5942ZM64.1406 23.5127C63.7419 24.4079 63.3797 25.3071 63.0542 26.2104C62.7368 27.1138 62.4683 27.9845 62.2485 28.8228C62.0207 29.661 61.8457 30.4463 61.7236 31.1787C61.6016 31.9111 61.5405 32.554 61.5405 33.1074C61.5405 33.2458 61.5487 33.3963 61.5649 33.5591C61.5812 33.7218 61.6138 33.8724 61.6626 34.0107C61.7114 34.1491 61.7806 34.263 61.8701 34.3525C61.9596 34.4502 62.0776 34.499 62.2241 34.499C62.4927 34.499 62.7246 34.3281 62.9199 33.9863C63.1152 33.6527 63.278 33.1969 63.4082 32.6191C63.5465 32.0495 63.6605 31.3903 63.75 30.6416C63.8395 29.901 63.9087 29.1239 63.9575 28.3101C64.0145 27.4963 64.0552 26.6743 64.0796 25.8442C64.104 25.0223 64.1243 24.2451 64.1406 23.5127ZM81.5723 19.5942C81.5397 19.6593 81.4705 19.7977 81.3647 20.0093C81.2671 20.2127 81.1369 20.4487 80.9741 20.7173C80.8195 20.9858 80.6364 21.2666 80.4248 21.5596C80.2132 21.8525 79.9772 22.1211 79.7168 22.3652C79.4564 22.6094 79.1756 22.8128 78.8745 22.9756C78.5734 23.1302 78.256 23.2075 77.9224 23.2075C77.4504 23.2075 77.0516 23.057 76.7261 22.7559C76.4087 22.4548 76.1768 22.0763 76.0303 21.6206C75.7536 22.0845 75.424 22.4548 75.0415 22.7314C74.659 23 74.2765 23.1343 73.894 23.1343C73.5929 23.1343 73.3203 23.0814 73.0762 22.9756C72.832 22.8617 72.6245 22.707 72.4536 22.5117C72.2827 22.3083 72.1484 22.0723 72.0508 21.8037C71.9613 21.5352 71.9165 21.2422 71.9165 20.9248C71.9165 20.29 72.0223 19.7326 72.2339 19.2524C72.4536 18.7642 72.7303 18.3573 73.064 18.0317C73.3976 17.7062 73.7638 17.4621 74.1626 17.2993C74.5695 17.1366 74.9601 17.0552 75.3345 17.0552C75.5868 17.0552 75.8187 17.0918 76.0303 17.165C76.2419 17.2301 76.4209 17.3034 76.5674 17.3848C76.722 17.4661 76.84 17.5435 76.9214 17.6167C77.0028 17.6818 77.0475 17.7184 77.0557 17.7266C77.1452 17.8324 77.1899 17.9422 77.1899 18.0562C77.1899 18.1782 77.1452 18.2881 77.0557 18.3857C76.9661 18.4753 76.8604 18.52 76.7383 18.52C76.6081 18.52 76.4982 18.4753 76.4087 18.3857C76.3924 18.3695 76.3558 18.341 76.2988 18.3003C76.2419 18.2515 76.1646 18.2026 76.0669 18.1538C75.9692 18.105 75.8512 18.0643 75.7129 18.0317C75.5827 17.991 75.4321 17.9707 75.2612 17.9707C75.009 17.9707 74.7404 18.0277 74.4556 18.1416C74.1707 18.2555 73.9103 18.4346 73.6743 18.6787C73.4383 18.9147 73.2389 19.2158 73.0762 19.582C72.9215 19.9401 72.8442 20.3674 72.8442 20.8638C72.8442 21.0184 72.8605 21.1771 72.8931 21.3398C72.9256 21.4945 72.9826 21.6369 73.064 21.7671C73.1453 21.8973 73.2552 22.0031 73.3936 22.0845C73.5319 22.1659 73.7028 22.2065 73.9062 22.2065C74.0527 22.2065 74.2196 22.1577 74.4067 22.0601C74.6021 21.9624 74.7852 21.8118 74.9561 21.6084C75.1351 21.4049 75.2938 21.1486 75.4321 20.8394C75.5786 20.5301 75.6803 20.1639 75.7373 19.7407C75.7536 19.6268 75.8065 19.5332 75.896 19.46C75.9855 19.3786 76.0913 19.3379 76.2134 19.3379C76.3273 19.3379 76.425 19.3826 76.5063 19.4722C76.5959 19.5617 76.6447 19.6634 76.6528 19.7773C76.661 19.932 76.6772 20.1517 76.7017 20.4365C76.7261 20.7132 76.779 20.9899 76.8604 21.2666C76.9499 21.5433 77.0801 21.7834 77.251 21.9868C77.4219 22.1903 77.6579 22.292 77.959 22.292C78.1543 22.292 78.3455 22.2391 78.5327 22.1333C78.728 22.0275 78.9152 21.8892 79.0942 21.7183C79.2814 21.5392 79.4564 21.3398 79.6191 21.1201C79.79 20.8923 79.9447 20.6644 80.083 20.4365C80.2214 20.2087 80.3434 19.9889 80.4492 19.7773C80.555 19.5658 80.6445 19.3826 80.7178 19.228C80.7585 19.1385 80.8154 19.0693 80.8887 19.0205C80.9701 18.9717 81.0555 18.9473 81.145 18.9473C81.2834 18.9473 81.3932 19.0002 81.4746 19.106C81.5641 19.2036 81.6089 19.3094 81.6089 19.4233C81.6089 19.4803 81.5967 19.5373 81.5723 19.5942ZM85.4907 25.8076C85.4907 26.0029 85.4541 26.1901 85.3809 26.3691C85.3076 26.5563 85.1978 26.7231 85.0513 26.8696C84.9048 27.0161 84.7217 27.1341 84.502 27.2236C84.2904 27.3132 84.0462 27.3579 83.7695 27.3579C83.6068 27.3579 83.4318 27.3376 83.2446 27.2969C83.0575 27.2643 82.8866 27.2114 82.7319 27.1382C82.5773 27.0649 82.4471 26.9754 82.3413 26.8696C82.2437 26.772 82.1948 26.658 82.1948 26.5278C82.1948 26.4058 82.2355 26.3081 82.3169 26.2349C82.4064 26.1698 82.5041 26.1372 82.6099 26.1372C82.675 26.1372 82.7401 26.1576 82.8052 26.1982C82.8703 26.2471 82.9435 26.2959 83.0249 26.3447C83.1144 26.4017 83.2161 26.4505 83.3301 26.4912C83.4521 26.54 83.5946 26.5645 83.7573 26.5645C84.0015 26.5645 84.2131 26.4993 84.3921 26.3691C84.5711 26.2471 84.6606 26.0558 84.6606 25.7954C84.6606 25.6489 84.6322 25.5269 84.5752 25.4292C84.5264 25.3315 84.4613 25.2502 84.3799 25.1851C84.3066 25.1281 84.2212 25.0874 84.1235 25.063C84.0259 25.0386 83.9364 25.0264 83.855 25.0264C83.7166 25.0264 83.6027 25.0386 83.5132 25.063C83.4237 25.0874 83.3504 25.0996 83.2935 25.0996C83.1877 25.0996 83.0981 25.0671 83.0249 25.002C82.9598 24.945 82.9272 24.8595 82.9272 24.7456C82.9272 24.6805 82.9354 24.6195 82.9517 24.5625C82.9679 24.5137 82.9842 24.4648 83.0005 24.416L83.3057 23.5859C82.8988 23.5452 82.5366 23.4313 82.2192 23.2441C81.9019 23.0651 81.6333 22.8291 81.4136 22.5361C81.202 22.235 81.0392 21.8851 80.9253 21.4863C80.8114 21.0876 80.7544 20.6562 80.7544 20.1924C80.7544 19.7041 80.8236 19.2484 80.9619 18.8252C81.1003 18.3939 81.2874 18.0195 81.5234 17.7021C81.7676 17.3848 82.0483 17.1366 82.3657 16.9575C82.6831 16.7703 83.0208 16.6768 83.3789 16.6768C83.6475 16.6768 83.8916 16.7256 84.1113 16.8232C84.3311 16.9128 84.5142 17.0348 84.6606 17.1895C84.8153 17.3441 84.9333 17.515 85.0146 17.7021C85.1042 17.8893 85.1489 18.0765 85.1489 18.2637C85.1489 18.4427 85.1245 18.6095 85.0757 18.7642C85.035 18.9188 84.978 19.0571 84.9048 19.1792C84.8397 19.2931 84.7624 19.3867 84.6729 19.46C84.5833 19.5251 84.4938 19.5576 84.4043 19.5576C84.266 19.5576 84.152 19.5129 84.0625 19.4233C83.9811 19.3338 83.9404 19.224 83.9404 19.0938C83.9404 19.0286 83.9526 18.9717 83.9771 18.9229C84.0096 18.874 84.0422 18.8252 84.0747 18.7764C84.1154 18.7194 84.1479 18.6543 84.1724 18.5811C84.2049 18.4997 84.2212 18.3979 84.2212 18.2759C84.2212 18.105 84.1398 17.9504 83.9771 17.812C83.8224 17.6737 83.623 17.6045 83.3789 17.6045C83.151 17.6045 82.9313 17.6737 82.7197 17.812C82.5163 17.9504 82.3372 18.1375 82.1826 18.3735C82.028 18.6014 81.9019 18.874 81.8042 19.1914C81.7147 19.5007 81.6699 19.8302 81.6699 20.1802C81.6699 20.5138 81.7106 20.8312 81.792 21.1323C81.8734 21.4334 81.9954 21.702 82.1582 21.938C82.321 22.1659 82.5244 22.349 82.7686 22.4873C83.0208 22.6257 83.3179 22.6948 83.6597 22.6948C84.0991 22.6948 84.506 22.6175 84.8804 22.4629C85.2547 22.3001 85.5965 22.0967 85.9058 21.8525C86.215 21.6084 86.4876 21.3439 86.7236 21.0591C86.9596 20.7661 87.159 20.4935 87.3218 20.2412C87.4927 19.9808 87.6229 19.757 87.7124 19.5698C87.8101 19.3745 87.867 19.2524 87.8833 19.2036C87.9159 19.1222 87.9688 19.0612 88.042 19.0205C88.1234 18.9717 88.2088 18.9473 88.2983 18.9473C88.4367 18.9473 88.5465 18.9961 88.6279 19.0938C88.7174 19.1914 88.7622 19.3013 88.7622 19.4233C88.7622 19.4722 88.7459 19.5373 88.7134 19.6187C88.6727 19.7082 88.5954 19.8628 88.4814 20.0825C88.3757 20.2941 88.2292 20.5382 88.042 20.8149C87.863 21.0835 87.6473 21.3683 87.395 21.6694C87.1509 21.9705 86.866 22.2554 86.5405 22.5239C86.2231 22.7843 85.8651 23.0081 85.4663 23.1953C85.0757 23.3906 84.6444 23.5168 84.1724 23.5737C84.1561 23.6144 84.1398 23.6551 84.1235 23.6958C84.1154 23.7446 84.1073 23.7772 84.0991 23.7935L83.9282 24.2695C84.1154 24.2695 84.3026 24.298 84.4897 24.355C84.6769 24.4201 84.8438 24.5177 84.9902 24.6479C85.1367 24.7782 85.2547 24.9368 85.3442 25.124C85.4419 25.3193 85.4907 25.5472 85.4907 25.8076ZM93.5107 21.6572C93.3073 21.6572 93.1283 21.641 92.9736 21.6084C92.8516 21.8525 92.7051 22.0804 92.5342 22.292C92.3633 22.4954 92.1639 22.6745 91.936 22.8291C91.7163 22.9837 91.4681 23.1058 91.1914 23.1953C90.9147 23.2848 90.6136 23.3296 90.2881 23.3296C89.9056 23.3296 89.5557 23.2604 89.2383 23.1221C88.9209 22.9919 88.6442 22.8088 88.4082 22.5728C88.1722 22.3286 87.9891 22.0397 87.8589 21.7061C87.7287 21.3643 87.6636 20.9899 87.6636 20.583C87.6636 20.0622 87.7572 19.6105 87.9443 19.228C88.1315 18.8374 88.3472 18.516 88.5913 18.2637C88.8354 18.0033 89.0796 17.812 89.3237 17.6899C89.5679 17.5597 89.751 17.4946 89.873 17.4946C90.0114 17.4946 90.1131 17.5312 90.1782 17.6045C90.2515 17.6777 90.2881 17.7754 90.2881 17.8975C90.2881 18.0358 90.2433 18.1416 90.1538 18.2148C90.0724 18.2799 89.9666 18.3451 89.8364 18.4102C89.7062 18.4753 89.5679 18.5688 89.4214 18.6909C89.2749 18.8049 89.1366 18.9513 89.0063 19.1304C88.8843 19.3094 88.7826 19.521 88.7012 19.7651C88.6198 20.0093 88.5791 20.2819 88.5791 20.583C88.5791 20.8516 88.6198 21.1038 88.7012 21.3398C88.7826 21.5677 88.9006 21.7671 89.0552 21.938C89.2098 22.1007 89.3929 22.231 89.6045 22.3286C89.8161 22.4181 90.0521 22.4629 90.3125 22.4629C90.7764 22.4629 91.1589 22.3571 91.46 22.1455C91.7692 21.9258 92.0052 21.6491 92.168 21.3154C91.6878 21.0632 91.2931 20.7051 90.9839 20.2412C90.6746 19.7773 90.52 19.2565 90.52 18.6787C90.52 18.2148 90.6299 17.8364 90.8496 17.5435C91.0775 17.2505 91.3745 17.104 91.7407 17.104C91.9604 17.104 92.168 17.1569 92.3633 17.2627C92.5586 17.3685 92.7295 17.5353 92.876 17.7632C93.0306 17.991 93.1527 18.284 93.2422 18.6421C93.3317 19.0002 93.3765 19.4274 93.3765 19.9238C93.3765 20.1842 93.3439 20.4569 93.2788 20.7417C93.3276 20.7498 93.3765 20.7539 93.4253 20.7539C93.4741 20.7539 93.527 20.7539 93.584 20.7539C93.8607 20.7539 94.1089 20.7214 94.3286 20.6562C94.5483 20.5911 94.7477 20.4935 94.9268 20.3633C95.1058 20.2331 95.2645 20.0662 95.4028 19.8628C95.5493 19.6593 95.6877 19.4233 95.8179 19.1548C95.8423 19.106 95.8952 19.0612 95.9766 19.0205C96.0579 18.9717 96.1393 18.9473 96.2207 18.9473C96.3265 18.9473 96.4242 18.992 96.5137 19.0815C96.6113 19.1629 96.6602 19.2728 96.6602 19.4111C96.6602 19.4762 96.6439 19.5495 96.6113 19.6309C96.5788 19.7041 96.5462 19.7733 96.5137 19.8384C96.3753 20.0825 96.2126 20.3185 96.0254 20.5464C95.8464 20.7661 95.6307 20.9614 95.3784 21.1323C95.1343 21.2951 94.8576 21.4253 94.5483 21.5229C94.2391 21.6206 93.8932 21.6654 93.5107 21.6572ZM91.4233 18.5811C91.4233 18.7357 91.4437 18.8984 91.4844 19.0693C91.5251 19.2402 91.5861 19.4111 91.6675 19.582C91.757 19.7448 91.8628 19.9035 91.9849 20.0581C92.1151 20.2046 92.2656 20.3307 92.4365 20.4365C92.4609 20.2656 92.4731 20.0988 92.4731 19.936C92.4731 19.7163 92.4569 19.4925 92.4243 19.2646C92.3918 19.0368 92.3429 18.8293 92.2778 18.6421C92.2209 18.4468 92.1476 18.2922 92.0581 18.1782C91.9686 18.0562 91.8628 17.9951 91.7407 17.9951C91.6919 17.9951 91.6268 18.0317 91.5454 18.105C91.464 18.1782 91.4233 18.3369 91.4233 18.5811ZM122.966 10.1826C122.942 10.2965 122.889 10.3861 122.808 10.4512C122.726 10.5163 122.637 10.5488 122.539 10.5488C122.393 10.5488 122.275 10.5041 122.185 10.4146C122.096 10.3169 122.051 10.207 122.051 10.085C122.051 9.96289 122.063 9.84489 122.087 9.73096C122.112 9.60889 122.124 9.49089 122.124 9.37695C122.124 8.78288 121.941 8.24984 121.575 7.77783C121.208 7.30583 120.688 6.91113 120.012 6.59375C119.345 6.26823 118.531 6.02002 117.571 5.84912C116.611 5.67822 115.54 5.59277 114.36 5.59277C113.457 5.59277 112.546 5.65381 111.626 5.77588C110.715 5.88981 109.836 6.06071 108.989 6.28857C108.151 6.5083 107.366 6.78906 106.633 7.13086C105.901 7.46452 105.262 7.85514 104.717 8.30273C104.18 8.74219 103.757 9.23454 103.447 9.77979C103.138 10.3169 102.983 10.9069 102.983 11.5498C102.983 12.0462 103.089 12.4857 103.301 12.8682C103.521 13.2425 103.818 13.5721 104.192 13.8569C104.566 14.1336 105.006 14.3737 105.51 14.5771C106.023 14.7725 106.576 14.9393 107.17 15.0776C107.764 15.2078 108.383 15.3177 109.026 15.4072C109.669 15.4886 110.316 15.5578 110.967 15.6147L112.847 15.7734C113.783 15.8548 114.621 15.9403 115.361 16.0298C116.102 16.1193 116.753 16.2332 117.314 16.3716C118.25 16.6076 118.942 16.9453 119.39 17.3848C119.837 17.8242 120.061 18.4102 120.061 19.1426C120.061 19.8506 119.866 20.4731 119.475 21.0103C119.084 21.5474 118.551 21.999 117.876 22.3652C117.201 22.7314 116.411 23.0081 115.508 23.1953C114.604 23.3825 113.636 23.4761 112.603 23.4761C111.479 23.4761 110.491 23.3988 109.636 23.2441C108.79 23.0977 108.078 22.9349 107.5 22.7559C106.93 22.5687 106.495 22.3978 106.194 22.2432C105.893 22.0885 105.73 22.0031 105.706 21.9868C105.559 21.9054 105.486 21.7752 105.486 21.5962C105.486 21.4578 105.535 21.348 105.632 21.2666C105.73 21.1771 105.836 21.1323 105.95 21.1323C106.039 21.1323 106.121 21.1567 106.194 21.2056C106.202 21.2056 106.34 21.2788 106.609 21.4253C106.886 21.5636 107.292 21.7183 107.83 21.8892C108.375 22.0601 109.046 22.2147 109.844 22.353C110.641 22.4914 111.569 22.5605 112.627 22.5605C113.677 22.5605 114.604 22.4751 115.41 22.3042C116.216 22.1333 116.891 21.8973 117.437 21.5962C117.99 21.2869 118.405 20.9289 118.682 20.522C118.966 20.1069 119.109 19.6593 119.109 19.1792C119.109 18.8944 119.056 18.6502 118.95 18.4468C118.853 18.2352 118.714 18.0562 118.535 17.9097C118.356 17.755 118.14 17.6248 117.888 17.519C117.644 17.4132 117.375 17.3237 117.083 17.2505C116.773 17.1691 116.44 17.0999 116.082 17.043C115.732 16.986 115.369 16.9372 114.995 16.8965C114.621 16.8558 114.242 16.8192 113.86 16.7866C113.486 16.7541 113.115 16.7215 112.749 16.689L110.869 16.5303C109.388 16.4082 108.094 16.221 106.987 15.9688C105.889 15.7083 104.973 15.3787 104.241 14.98C103.508 14.5731 102.959 14.0889 102.593 13.5273C102.227 12.9658 102.043 12.3107 102.043 11.562C102.043 10.797 102.214 10.0972 102.556 9.4624C102.906 8.8195 103.378 8.2417 103.972 7.729C104.574 7.21631 105.274 6.77279 106.072 6.39844C106.877 6.01595 107.736 5.69857 108.647 5.44629C109.559 5.19401 110.503 5.00684 111.479 4.88477C112.456 4.75456 113.416 4.68945 114.36 4.68945C115.54 4.68945 116.566 4.7627 117.437 4.90918C118.315 5.04753 119.064 5.23063 119.683 5.4585C120.309 5.67822 120.822 5.9305 121.221 6.21533C121.619 6.50016 121.941 6.78092 122.185 7.05762C122.763 7.73307 123.052 8.50212 123.052 9.36475C123.052 9.64958 123.023 9.9222 122.966 10.1826ZM131.255 19.5942C131.222 19.6593 131.153 19.7977 131.047 20.0093C130.95 20.2127 130.819 20.4487 130.657 20.7173C130.502 20.9858 130.319 21.2666 130.107 21.5596C129.896 21.8525 129.66 22.1211 129.399 22.3652C129.139 22.6094 128.858 22.8128 128.557 22.9756C128.256 23.1302 127.939 23.2075 127.605 23.2075C127.133 23.2075 126.734 23.057 126.409 22.7559C126.091 22.4548 125.859 22.0763 125.713 21.6206C125.436 22.0845 125.107 22.4548 124.724 22.7314C124.342 23 123.959 23.1343 123.577 23.1343C123.276 23.1343 123.003 23.0814 122.759 22.9756C122.515 22.8617 122.307 22.707 122.136 22.5117C121.965 22.3083 121.831 22.0723 121.733 21.8037C121.644 21.5352 121.599 21.2422 121.599 20.9248C121.599 20.29 121.705 19.7326 121.917 19.2524C122.136 18.7642 122.413 18.3573 122.747 18.0317C123.08 17.7062 123.446 17.4621 123.845 17.2993C124.252 17.1366 124.643 17.0552 125.017 17.0552C125.269 17.0552 125.501 17.0918 125.713 17.165C125.924 17.2301 126.104 17.3034 126.25 17.3848C126.405 17.4661 126.523 17.5435 126.604 17.6167C126.685 17.6818 126.73 17.7184 126.738 17.7266C126.828 17.8324 126.873 17.9422 126.873 18.0562C126.873 18.1782 126.828 18.2881 126.738 18.3857C126.649 18.4753 126.543 18.52 126.421 18.52C126.291 18.52 126.181 18.4753 126.091 18.3857C126.075 18.3695 126.038 18.341 125.981 18.3003C125.924 18.2515 125.847 18.2026 125.75 18.1538C125.652 18.105 125.534 18.0643 125.396 18.0317C125.265 17.991 125.115 17.9707 124.944 17.9707C124.692 17.9707 124.423 18.0277 124.138 18.1416C123.853 18.2555 123.593 18.4346 123.357 18.6787C123.121 18.9147 122.922 19.2158 122.759 19.582C122.604 19.9401 122.527 20.3674 122.527 20.8638C122.527 21.0184 122.543 21.1771 122.576 21.3398C122.608 21.4945 122.665 21.6369 122.747 21.7671C122.828 21.8973 122.938 22.0031 123.076 22.0845C123.215 22.1659 123.385 22.2065 123.589 22.2065C123.735 22.2065 123.902 22.1577 124.089 22.0601C124.285 21.9624 124.468 21.8118 124.639 21.6084C124.818 21.4049 124.976 21.1486 125.115 20.8394C125.261 20.5301 125.363 20.1639 125.42 19.7407C125.436 19.6268 125.489 19.5332 125.579 19.46C125.668 19.3786 125.774 19.3379 125.896 19.3379C126.01 19.3379 126.108 19.3826 126.189 19.4722C126.278 19.5617 126.327 19.6634 126.335 19.7773C126.344 19.932 126.36 20.1517 126.384 20.4365C126.409 20.7132 126.462 20.9899 126.543 21.2666C126.632 21.5433 126.763 21.7834 126.934 21.9868C127.104 22.1903 127.34 22.292 127.642 22.292C127.837 22.292 128.028 22.2391 128.215 22.1333C128.411 22.0275 128.598 21.8892 128.777 21.7183C128.964 21.5392 129.139 21.3398 129.302 21.1201C129.473 20.8923 129.627 20.6644 129.766 20.4365C129.904 20.2087 130.026 19.9889 130.132 19.7773C130.238 19.5658 130.327 19.3826 130.4 19.228C130.441 19.1385 130.498 19.0693 130.571 19.0205C130.653 18.9717 130.738 18.9473 130.828 18.9473C130.966 18.9473 131.076 19.0002 131.157 19.106C131.247 19.2036 131.292 19.3094 131.292 19.4233C131.292 19.4803 131.279 19.5373 131.255 19.5942ZM134.465 21.6328C134.181 22.0967 133.847 22.4629 133.464 22.7314C133.09 23 132.712 23.1343 132.329 23.1343C132.02 23.1343 131.743 23.0773 131.499 22.9634C131.255 22.8494 131.043 22.6908 130.864 22.4873C130.685 22.2757 130.547 22.0234 130.449 21.7305C130.36 21.4375 130.315 21.1079 130.315 20.7417C130.315 20.172 130.368 19.6675 130.474 19.228C130.588 18.7886 130.71 18.4224 130.84 18.1294C130.97 17.8283 131.092 17.6004 131.206 17.4458C131.32 17.2912 131.377 17.2139 131.377 17.2139C131.418 17.165 131.466 17.1284 131.523 17.104C131.589 17.0796 131.654 17.0674 131.719 17.0674C131.849 17.0674 131.955 17.1162 132.036 17.2139C132.126 17.3034 132.17 17.4092 132.17 17.5312C132.17 17.5801 132.158 17.6289 132.134 17.6777C132.118 17.7266 132.097 17.7754 132.073 17.8242C132.032 17.8975 131.967 18.0114 131.877 18.166C131.788 18.3125 131.694 18.5078 131.597 18.752C131.499 18.9961 131.414 19.285 131.34 19.6187C131.267 19.9442 131.23 20.3185 131.23 20.7417C131.23 21.2218 131.324 21.5881 131.511 21.8403C131.707 22.0845 131.979 22.2065 132.329 22.2065C132.476 22.2065 132.642 22.1618 132.83 22.0723C133.025 21.9746 133.212 21.8281 133.391 21.6328C133.578 21.4375 133.741 21.1893 133.879 20.8882C134.018 20.5871 134.107 20.2331 134.148 19.8262L134.331 17.7266C134.347 17.6045 134.4 17.5028 134.49 17.4214C134.579 17.34 134.685 17.2993 134.807 17.2993C134.945 17.2993 135.055 17.3522 135.137 17.458C135.218 17.5557 135.259 17.6696 135.259 17.7998L135.1 19.8262C135.084 19.9971 135.088 20.2209 135.112 20.4976C135.145 20.7743 135.206 21.0469 135.295 21.3154C135.385 21.584 135.519 21.8159 135.698 22.0112C135.877 22.1984 136.113 22.292 136.406 22.292C136.618 22.292 136.825 22.2391 137.029 22.1333C137.232 22.0194 137.428 21.8729 137.615 21.6938C137.802 21.5148 137.973 21.3154 138.127 21.0957C138.29 20.8678 138.437 20.64 138.567 20.4121C138.705 20.1842 138.823 19.9686 138.921 19.7651C139.019 19.5535 139.1 19.3745 139.165 19.228C139.206 19.1385 139.263 19.0693 139.336 19.0205C139.409 18.9717 139.491 18.9473 139.58 18.9473C139.727 18.9473 139.84 18.9961 139.922 19.0938C140.003 19.1914 140.044 19.2972 140.044 19.4111C140.044 19.4762 140.032 19.5373 140.007 19.5942C139.975 19.6593 139.91 19.7977 139.812 20.0093C139.722 20.2127 139.6 20.4487 139.446 20.7173C139.299 20.9777 139.12 21.2544 138.909 21.5474C138.697 21.8403 138.461 22.113 138.201 22.3652C137.94 22.6094 137.655 22.8128 137.346 22.9756C137.045 23.1302 136.72 23.2075 136.37 23.2075C135.889 23.2075 135.491 23.0732 135.173 22.8047C134.856 22.528 134.62 22.1374 134.465 21.6328ZM132.842 15.1753L134.795 13.3198C134.876 13.2466 134.97 13.21 135.076 13.21C135.181 13.21 135.275 13.2507 135.356 13.332C135.438 13.4134 135.479 13.5111 135.479 13.625C135.479 13.7389 135.438 13.8325 135.356 13.9058L133.403 15.7612C133.314 15.8345 133.22 15.8711 133.123 15.8711C133.009 15.8711 132.911 15.8304 132.83 15.749C132.756 15.6676 132.72 15.5741 132.72 15.4683C132.72 15.3543 132.76 15.2567 132.842 15.1753ZM143.914 19.4478C144.312 21.3276 144.89 22.2676 145.647 22.2676C145.94 22.2676 146.221 22.1618 146.489 21.9502C146.758 21.7305 147.006 21.466 147.234 21.1567C147.47 20.8394 147.677 20.5057 147.856 20.1558C148.035 19.8058 148.182 19.5007 148.296 19.2402C148.377 19.0449 148.52 18.9473 148.723 18.9473C148.853 18.9473 148.963 18.9961 149.053 19.0938C149.142 19.1914 149.187 19.2972 149.187 19.4111C149.187 19.4762 149.175 19.5332 149.15 19.582C149.093 19.7204 149.008 19.9076 148.894 20.1436C148.788 20.3714 148.654 20.6196 148.491 20.8882C148.337 21.1486 148.162 21.4172 147.966 21.6938C147.771 21.9705 147.555 22.2188 147.319 22.4385C147.083 22.6582 146.831 22.8413 146.562 22.9878C146.302 23.1261 146.025 23.1953 145.732 23.1953C145.187 23.1953 144.719 23.0081 144.329 22.6338C143.938 22.2513 143.6 21.6247 143.315 20.7539C142.925 21.584 142.53 22.1862 142.131 22.5605C141.733 22.9349 141.301 23.1221 140.837 23.1221C140.593 23.1221 140.357 23.0814 140.129 23C139.902 22.9268 139.702 22.8006 139.531 22.6216C139.36 22.4425 139.222 22.2147 139.116 21.938C139.01 21.6532 138.958 21.3073 138.958 20.9004C138.958 20.3389 139.055 19.8221 139.25 19.3501C139.446 18.8781 139.698 18.4753 140.007 18.1416C140.317 17.7998 140.658 17.5353 141.033 17.3481C141.415 17.161 141.794 17.0674 142.168 17.0674C142.29 17.0674 142.396 17.1121 142.485 17.2017C142.575 17.283 142.62 17.3888 142.62 17.519C142.62 17.633 142.583 17.7347 142.51 17.8242C142.437 17.9137 142.339 17.9666 142.217 17.9829C141.973 18.0155 141.712 18.0928 141.436 18.2148C141.159 18.3369 140.903 18.516 140.667 18.752C140.439 18.9798 140.247 19.2728 140.093 19.6309C139.946 19.9889 139.873 20.4162 139.873 20.9126C139.873 21.3195 139.954 21.6369 140.117 21.8647C140.288 22.0926 140.532 22.2065 140.85 22.2065C140.98 22.2065 141.118 22.174 141.265 22.1089C141.411 22.0356 141.566 21.8973 141.729 21.6938C141.899 21.4904 142.083 21.2015 142.278 20.8271C142.481 20.4528 142.705 19.9604 142.949 19.3501C142.811 18.634 142.685 17.8079 142.571 16.8721C142.457 15.9362 142.4 14.8905 142.4 13.7349C142.4 13.2303 142.416 12.7054 142.449 12.1602C142.481 11.6068 142.534 11.0697 142.607 10.5488C142.681 10.0199 142.778 9.51937 142.9 9.04736C143.022 8.57536 143.169 8.16032 143.34 7.80225C143.519 7.44417 143.726 7.16341 143.962 6.95996C144.198 6.74837 144.467 6.64258 144.768 6.64258C145.037 6.64258 145.264 6.71582 145.452 6.8623C145.639 7.00879 145.789 7.21224 145.903 7.47266C146.025 7.73307 146.115 8.04639 146.172 8.4126C146.229 8.77881 146.257 9.18164 146.257 9.62109C146.257 10.5651 146.176 11.5091 146.013 12.4531C145.85 13.3971 145.647 14.3005 145.403 15.1631C145.167 16.0257 144.915 16.8232 144.646 17.5557C144.377 18.2881 144.133 18.9188 143.914 19.4478ZM145.342 9.60889C145.342 9.40544 145.334 9.18571 145.317 8.94971C145.309 8.7137 145.281 8.49398 145.232 8.29053C145.191 8.07894 145.134 7.90397 145.061 7.76562C144.988 7.62728 144.89 7.55811 144.768 7.55811C144.565 7.55811 144.373 7.73714 144.194 8.09521C144.023 8.45329 143.873 8.92529 143.743 9.51123C143.612 10.089 143.507 10.7482 143.425 11.4888C143.352 12.2212 143.315 12.9618 143.315 13.7104C143.315 14.4266 143.344 15.1427 143.401 15.8589C143.458 16.575 143.523 17.2139 143.596 17.7754C143.832 17.1488 144.056 16.5059 144.268 15.8467C144.479 15.1794 144.662 14.4998 144.817 13.8081C144.98 13.1164 145.106 12.4206 145.195 11.7207C145.293 11.0127 145.342 10.3088 145.342 9.60889ZM149.773 21.6572C149.944 21.8932 150.164 22.0845 150.432 22.231C150.701 22.3693 151.03 22.4385 151.421 22.4385C151.82 22.4385 152.182 22.3449 152.507 22.1577C152.833 21.9624 153.13 21.7101 153.398 21.4009C153.667 21.0916 153.907 20.7458 154.119 20.3633C154.33 19.9808 154.521 19.5983 154.692 19.2158C154.733 19.1263 154.79 19.0612 154.863 19.0205C154.937 18.9717 155.018 18.9473 155.107 18.9473C155.246 18.9473 155.356 18.9961 155.437 19.0938C155.527 19.1914 155.571 19.2972 155.571 19.4111C155.571 19.4518 155.567 19.4884 155.559 19.521C155.551 19.5454 155.539 19.5739 155.522 19.6064C154.961 20.8434 154.347 21.7752 153.679 22.4019C153.02 23.0285 152.271 23.3499 151.433 23.3662C150.896 23.3662 150.432 23.2604 150.042 23.0488C149.651 22.8454 149.329 22.5809 149.077 22.2554C148.825 21.9217 148.638 21.5474 148.516 21.1323C148.394 20.7173 148.333 20.3022 148.333 19.8872C148.333 19.4722 148.381 19.0897 148.479 18.7397C148.585 18.3898 148.731 18.0846 148.918 17.8242C149.114 17.5638 149.342 17.3604 149.602 17.2139C149.871 17.0674 150.164 16.9941 150.481 16.9941C150.668 16.9941 150.851 17.0348 151.03 17.1162C151.217 17.1895 151.384 17.2993 151.531 17.4458C151.677 17.5841 151.795 17.755 151.885 17.9585C151.974 18.1619 152.019 18.3939 152.019 18.6543C152.019 18.988 151.962 19.3013 151.848 19.5942C151.734 19.8872 151.576 20.1598 151.372 20.4121C151.177 20.6644 150.941 20.8963 150.664 21.1079C150.387 21.3195 150.09 21.5026 149.773 21.6572ZM149.407 20.8638C149.659 20.758 149.887 20.6237 150.09 20.4609C150.302 20.2982 150.481 20.1191 150.627 19.9238C150.774 19.7285 150.888 19.5251 150.969 19.3135C151.051 19.0938 151.091 18.874 151.091 18.6543C151.091 18.4102 151.03 18.2271 150.908 18.105C150.786 17.9748 150.644 17.9097 150.481 17.9097C150.261 17.9097 150.074 17.9707 149.919 18.0928C149.765 18.2148 149.639 18.3735 149.541 18.5688C149.443 18.7642 149.37 18.9839 149.321 19.228C149.281 19.464 149.26 19.7 149.26 19.936C149.26 20.0825 149.272 20.2371 149.297 20.3999C149.329 20.5627 149.366 20.7173 149.407 20.8638Z" fill="url(#paint1_angular_55_157)" fill-opacity="0.2"/>
<path d="M13.7109 3C14.5895 3.83281 14.6352 3.77848 14.6357 3.77848C14.6357 7.15543 14.3249 8.6027 16.1083 9.98598C17.516 11.0829 19.3268 10.8289 22.0904 10.8635L25.0864 13.6879C17.4688 13.6742 16.4531 13.8418 15.0241 12.5367C13.5662 11.2078 13.7109 10.1175 13.7109 3Z" fill="url(#paint2_linear_55_157)"/>
<path d="M12.9187 29C12.0392 28.1677 11.993 28.222 11.993 28.222C11.993 24.8451 12.3038 23.3978 10.5204 22.0145C9.11726 20.9166 7.3064 21.1706 4.54238 21.136L1.5473 18.3111C8.91059 18.3243 10.1801 18.1587 11.602 19.4618C13.0594 20.7912 12.9157 21.8815 12.9167 28.999L12.9187 29Z" fill="url(#paint3_linear_55_157)"/>
<path d="M1.55542 17.4549C2.43647 16.6246 2.27651 16.7744 2.27651 16.7744C5.85151 16.7744 7.35464 16.9643 8.82729 15.2855C9.98866 13.9566 9.66772 12.3498 9.70429 9.73968L12.8705 6.7182C12.8563 13.9068 13.2133 14.6289 11.6797 16.2397C10.0897 17.7712 9.08983 17.4544 1.55542 17.4549Z" fill="url(#paint4_linear_55_157)"/>
<path d="M25.0986 14.6289C24.2176 15.4592 24.3775 15.3094 24.3775 15.3089C20.8025 15.3089 19.2994 15.119 17.8268 16.7978C16.6654 18.1267 16.9863 19.7329 16.9498 22.3436L13.779 25.3651C13.7932 18.177 13.4367 17.4518 14.9713 15.8436C16.5598 14.312 17.5612 14.6249 25.1276 14.6249L25.0986 14.6289Z" fill="url(#paint5_linear_55_157)"/>
</svg>
